{"glyphs":{"0":{"ha":808,"x_min":71,"x_max":738,"o":"m 156 110 q 114 173 156 110 q 71 468 71 235 q 157 827 71 701 q 404 953 243 953 q 651 827 564 953 q 738 468 738 701 q 651 110 738 235 q 404 -14 565 -14 q 156 110 242 -14 m 171 468 q 404 72 171 72 q 578 173 518 72 q 638 468 638 274 q 578 765 638 664 q 404 867 518 867 q 231 765 290 867 q 171 468 171 664 z "},"1":{"ha":425,"x_min":25,"x_max":306,"o":"m 306 0 l 210 0 l 210 856 l 25 856 l 25 939 l 306 939 l 306 0 z "},"2":{"ha":710,"x_min":56,"x_max":643,"o":"m 643 86 l 643 0 l 76 0 l 76 56 l 376 394 q 498 556 464 494 q 532 683 532 617 q 479 815 532 763 q 344 867 426 867 q 204 813 258 867 q 150 671 150 758 l 56 671 q 138 874 56 794 q 349 953 219 953 q 553 879 472 953 q 633 692 633 806 q 594 544 633 615 q 449 353 556 472 l 219 86 l 643 86 z "},"3":{"ha":794,"x_min":76,"x_max":711,"o":"m 394 -12 q 167 63 256 -12 q 76 260 79 138 l 171 260 q 235 119 175 171 q 394 67 296 67 q 553 118 496 67 q 611 258 611 169 q 547 393 611 343 q 375 443 483 443 l 282 443 l 282 524 l 372 524 q 513 574 458 524 q 568 703 568 624 q 517 826 568 779 q 386 874 467 874 q 251 826 303 874 q 196 696 200 778 l 103 696 q 188 879 106 806 q 389 953 269 953 q 591 884 514 953 q 668 707 668 815 q 507 489 668 557 q 658 405 604 465 q 711 260 711 344 q 624 63 711 139 q 394 -12 536 -12 z "},"4":{"ha":779,"x_min":40,"x_max":719,"o":"m 719 224 l 593 224 l 593 0 l 497 0 l 497 224 l 40 224 l 40 289 l 525 939 l 593 939 l 593 308 l 719 308 l 719 224 m 153 308 l 497 308 l 497 781 l 153 308 z "},"5":{"ha":751,"x_min":64,"x_max":694,"o":"m 371 -14 q 156 64 243 -14 q 64 261 68 142 l 158 261 q 223 124 164 175 q 371 72 282 72 q 536 133 476 72 q 596 293 596 193 q 534 444 596 383 q 374 506 472 506 q 168 394 239 506 l 93 417 l 175 939 l 642 939 l 642 854 l 244 854 l 193 515 q 386 589 275 589 q 610 504 526 589 q 694 294 694 419 q 607 73 694 160 q 371 -14 519 -14 z "},"6":{"ha":757,"x_min":51,"x_max":706,"o":"m 378 -12 q 144 76 238 -12 q 51 294 51 164 q 81 440 51 379 q 175 582 111 501 l 458 939 l 568 939 l 286 582 q 397 603 344 603 q 618 518 531 603 q 706 297 706 433 q 613 76 706 165 q 378 -12 519 -12 m 379 68 q 541 133 476 68 q 606 294 606 197 q 542 463 606 399 q 379 528 478 528 q 215 467 278 528 q 151 297 151 407 q 216 133 151 197 q 379 68 281 68 z "},"7":{"ha":675,"x_min":26,"x_max":639,"o":"m 639 883 l 264 0 l 160 0 l 531 853 l 26 853 l 26 939 l 639 939 l 639 883 z "},"8":{"ha":824,"x_min":83,"x_max":742,"o":"m 742 257 q 650 62 742 136 q 413 -12 558 -12 q 174 62 265 -12 q 83 257 83 136 q 136 404 83 344 q 274 489 189 464 q 165 571 207 514 q 122 701 122 628 q 205 883 122 813 q 413 953 288 953 q 619 883 538 953 q 701 701 701 813 q 659 571 701 628 q 551 489 617 514 q 689 404 636 464 q 742 257 742 344 m 275 826 q 249 803 275 826 q 222 699 222 779 q 274 572 222 618 q 413 525 326 525 q 550 572 497 525 q 603 699 603 618 q 550 826 603 779 q 413 874 497 874 q 275 826 328 874 m 183 260 q 247 119 183 171 q 413 67 311 67 q 578 119 514 67 q 642 260 642 171 q 578 397 642 347 q 413 446 514 446 q 247 397 310 446 q 183 260 183 347 z "},"9":{"ha":757,"x_min":51,"x_max":706,"o":"m 379 951 q 613 863 519 951 q 706 644 706 775 q 676 503 706 564 q 581 357 647 442 l 299 0 l 188 0 l 469 358 q 358 338 418 338 q 138 422 225 338 q 51 642 51 506 q 144 863 51 774 q 379 951 238 951 m 378 871 q 215 807 279 871 q 151 644 151 743 q 215 476 151 540 q 378 411 278 411 q 542 472 478 411 q 606 642 606 532 q 540 806 606 742 q 378 871 475 871 z "},"\u0000":{"ha":0,"x_min":0,"x_max":0,"o":""},"\r":{"ha":389,"x_min":0,"x_max":0,"o":""}," ":{"ha":290,"x_min":0,"x_max":0,"o":""},"!":{"ha":351,"x_min":86,"x_max":264,"o":"m 211 250 l 138 250 l 118 997 l 232 997 l 211 250 m 264 79 q 238 17 264 42 q 175 -7 213 -7 q 112 17 138 -7 q 86 79 86 42 q 112 142 86 117 q 175 167 138 167 q 239 142 214 167 q 264 79 264 118 z "},"\"":{"ha":546,"x_min":132,"x_max":413,"o":"m 214 738 l 140 738 l 132 997 l 224 997 l 214 738 m 404 738 l 331 738 l 322 997 l 413 997 l 404 738 z "},"#":{"ha":917,"x_min":97,"x_max":819,"o":"m 243 0 l 165 0 l 247 292 l 97 292 l 97 365 l 264 365 l 318 560 l 153 560 l 153 635 l 336 635 l 421 939 l 499 939 l 414 635 l 589 635 l 674 939 l 751 939 l 667 635 l 819 635 l 819 560 l 649 560 l 594 365 l 764 365 l 764 292 l 578 292 l 496 0 l 418 0 l 500 292 l 325 292 l 243 0 m 396 560 l 342 365 l 517 365 l 571 560 l 396 560 z "},"$":{"ha":824,"x_min":72,"x_max":742,"o":"m 443 -124 l 372 -124 l 372 -12 q 157 78 236 -1 q 72 283 78 158 l 171 283 q 239 125 178 182 q 411 68 300 68 q 574 117 508 68 q 639 247 639 165 q 597 356 639 318 q 458 414 554 393 l 347 438 q 258 465 296 450 q 181 508 219 481 q 122 581 143 536 q 101 685 101 625 q 177 865 101 790 q 372 950 253 940 l 372 1065 l 443 1065 l 443 950 q 644 861 564 939 q 731 661 724 783 l 632 661 q 566 811 626 753 q 411 869 506 869 q 258 817 314 869 q 201 690 201 765 q 251 580 201 615 q 388 525 300 544 l 497 501 q 679 420 617 475 q 742 260 742 365 q 663 72 742 149 q 443 -12 583 -6 l 443 -124 z "},"%":{"ha":1463,"x_min":50,"x_max":1414,"o":"m 533 448 q 494 406 533 448 q 331 364 454 364 q 128 448 207 364 q 50 656 50 532 q 128 863 50 779 q 331 947 207 947 q 533 863 454 947 q 613 656 613 779 q 533 448 613 532 m 503 0 l 421 0 l 949 939 l 1032 939 l 503 0 m 331 435 q 472 494 415 435 q 528 656 528 554 q 472 817 528 758 q 331 876 415 876 q 190 817 247 876 q 133 656 133 758 q 190 494 133 554 q 331 435 247 435 m 1335 73 q 1295 31 1335 73 q 1132 -11 1256 -11 q 929 73 1008 -11 q 850 281 850 157 q 929 488 850 404 q 1132 572 1008 572 q 1335 488 1256 572 q 1414 281 1414 404 q 1335 73 1414 157 m 992 119 q 1020 90 992 119 q 1132 60 1049 60 q 1272 119 1215 60 q 1329 281 1329 179 q 1272 442 1329 383 q 1132 500 1215 500 q 992 442 1049 500 q 935 281 935 383 q 992 119 935 179 z "},"&":{"ha":849,"x_min":50,"x_max":822,"o":"m 371 526 l 628 226 q 672 436 667 310 l 761 436 q 682 163 754 276 l 822 0 l 701 0 l 624 92 q 368 -14 517 -14 q 137 65 224 -14 q 50 278 50 144 q 103 432 50 365 q 246 535 157 499 q 168 728 168 635 q 240 889 168 825 q 418 953 311 953 q 597 890 525 953 q 671 726 668 826 l 581 726 q 528 835 575 794 q 418 875 481 875 q 309 833 353 875 q 265 728 265 792 q 288 637 265 676 q 371 526 311 597 m 143 282 q 203 131 143 196 q 374 65 263 65 q 575 149 492 65 l 294 478 q 185 403 226 454 q 143 282 143 351 z "},"'":{"ha":356,"x_min":132,"x_max":224,"o":"m 214 738 l 140 738 l 132 997 l 224 997 l 214 738 z "},"(":{"ha":422,"x_min":118,"x_max":386,"o":"m 386 -268 l 294 -268 q 118 365 118 1 q 294 997 118 728 l 386 997 q 215 365 215 740 q 386 -268 215 -11 z "},")":{"ha":422,"x_min":36,"x_max":304,"o":"m 128 -268 l 36 -268 q 207 365 207 -8 q 36 997 207 736 l 128 997 q 304 365 304 728 q 128 -268 304 1 z "},"*":{"ha":694,"x_min":60,"x_max":635,"o":"m 347 657 l 194 468 l 138 514 l 289 699 l 60 767 l 82 835 l 311 765 l 308 997 l 386 997 l 383 765 l 613 835 l 635 767 l 406 699 l 557 514 l 500 468 l 347 657 z "},"+":{"ha":917,"x_min":111,"x_max":806,"o":"m 503 121 l 414 121 l 414 425 l 111 425 l 111 507 l 414 507 l 414 810 l 503 810 l 503 507 l 806 507 l 806 425 l 503 425 l 503 121 z "},",":{"ha":358,"x_min":56,"x_max":267,"o":"m 267 46 q 209 -94 267 -35 q 56 -157 151 -154 l 56 -99 q 152 -62 114 -94 q 194 19 190 -29 q 163 13 181 13 q 108 35 129 13 q 86 89 86 57 q 110 147 86 125 q 169 169 133 169 q 242 136 217 169 q 267 46 267 103 z "},"-":{"ha":501,"x_min":32,"x_max":471,"o":"m 471 340 l 32 340 l 32 426 l 471 426 l 471 340 z "},".":{"ha":358,"x_min":92,"x_max":267,"o":"m 267 81 q 242 18 267 43 q 179 -7 218 -7 q 117 18 142 -7 q 92 81 92 43 q 117 144 92 119 q 179 169 142 169 q 242 144 218 169 q 267 81 267 119 z "},"/":{"ha":671,"x_min":-19,"x_max":692,"o":"m 75 -268 l -19 -268 l 596 997 l 692 997 l 75 -268 z "},":":{"ha":358,"x_min":92,"x_max":267,"o":"m 242 710 q 255 697 242 710 q 267 646 267 685 q 242 583 267 607 q 179 558 218 558 q 117 583 142 558 q 92 646 92 607 q 117 710 92 685 q 179 735 142 735 q 242 710 218 735 m 267 81 q 242 18 267 43 q 179 -7 218 -7 q 117 18 142 -7 q 92 81 92 43 q 117 144 92 119 q 179 169 142 169 q 242 144 218 169 q 267 81 267 119 z "},";":{"ha":358,"x_min":56,"x_max":267,"o":"m 237 710 q 249 697 237 710 q 261 646 261 685 q 237 583 261 607 q 175 558 213 558 q 111 583 136 558 q 86 646 86 607 q 111 710 86 685 q 175 735 136 735 q 237 710 213 735 m 267 46 q 209 -94 267 -35 q 56 -157 151 -154 l 56 -99 q 152 -62 114 -94 q 194 19 190 -29 q 163 13 181 13 q 108 35 129 13 q 86 89 86 57 q 110 147 86 125 q 169 169 133 169 q 242 136 217 169 q 267 46 267 103 z "},"<":{"ha":917,"x_min":111,"x_max":806,"o":"m 111 503 l 806 808 l 806 724 l 211 464 l 806 204 l 806 119 l 111 425 l 111 503 z "},"=":{"ha":917,"x_min":111,"x_max":806,"o":"m 806 564 l 111 564 l 111 646 l 806 646 l 806 564 m 806 286 l 111 286 l 111 368 l 806 368 l 806 286 z "},">":{"ha":917,"x_min":111,"x_max":806,"o":"m 806 425 l 111 119 l 111 204 l 706 464 l 111 724 l 111 808 l 806 503 l 806 425 z "},"?":{"ha":611,"x_min":25,"x_max":586,"o":"m 118 758 l 25 758 q 108 940 28 869 q 307 1011 188 1011 q 509 942 432 1011 q 586 769 586 874 q 556 656 586 707 q 464 553 525 606 l 394 493 q 323 399 339 446 q 313 250 307 353 l 244 250 q 240 417 228 358 q 311 529 253 476 l 386 596 q 460 679 438 644 q 482 761 482 714 q 433 878 482 832 q 300 925 383 925 q 170 878 221 925 q 118 758 119 832 m 372 79 q 347 17 372 42 q 282 -7 321 -7 q 219 17 244 -7 q 193 79 193 42 q 218 142 193 118 q 282 167 243 167 q 347 142 321 167 q 372 79 372 118 z "},"@":{"ha":1324,"x_min":56,"x_max":1268,"o":"m 1008 -108 l 1008 -190 q 658 -282 858 -282 q 230 -103 404 -282 q 56 335 56 76 q 233 774 56 594 q 672 953 411 953 q 1098 794 928 953 q 1268 403 1268 636 q 1190 142 1268 242 q 989 43 1111 43 q 814 167 840 43 q 594 43 738 43 q 423 119 489 43 q 357 313 357 194 q 435 538 357 449 q 632 628 513 628 q 760 591 707 628 q 836 488 813 554 l 860 608 l 949 608 l 890 301 q 882 232 882 264 q 992 119 882 119 q 1128 194 1078 119 q 1178 394 1178 268 q 1035 737 1178 597 q 672 876 893 876 q 296 721 446 876 q 146 335 146 565 q 292 -50 146 106 q 658 -206 439 -206 q 1008 -108 871 -206 m 450 318 q 494 174 450 229 q 610 119 538 119 q 751 188 694 119 q 807 357 807 256 q 765 501 807 450 q 643 553 722 553 q 503 486 557 553 q 450 318 450 419 z "},"A":{"ha":963,"x_min":38,"x_max":925,"o":"m 815 0 l 711 276 l 246 276 l 140 0 l 38 0 l 425 997 l 539 997 l 925 0 l 815 0 m 479 886 l 278 361 l 678 361 l 479 886 z "},"B":{"ha":867,"x_min":113,"x_max":783,"o":"m 783 279 q 694 74 783 147 q 457 0 606 0 l 113 0 l 113 997 l 436 997 q 663 930 582 997 q 743 740 743 863 q 699 607 743 667 q 579 519 656 547 q 731 432 679 494 q 783 279 783 369 m 431 913 l 210 913 l 210 557 l 431 557 q 586 604 531 557 q 642 735 642 651 q 586 865 642 818 q 431 913 531 913 m 451 472 l 210 472 l 210 85 l 451 85 q 622 137 561 85 q 683 282 683 189 q 622 422 683 372 q 451 472 561 472 z "},"C":{"ha":1071,"x_min":56,"x_max":1015,"o":"m 543 -21 q 195 129 335 -21 q 56 500 56 279 q 195 869 56 721 q 543 1018 335 1018 q 854 908 722 1018 q 1015 621 986 799 l 906 621 q 781 840 882 754 q 543 925 681 925 q 270 804 378 925 q 163 500 163 683 q 270 193 163 314 q 543 72 378 72 q 781 158 681 72 q 906 378 882 243 l 1015 378 q 854 90 986 200 q 543 -21 722 -21 z "},"D":{"ha":947,"x_min":113,"x_max":892,"o":"m 396 0 l 113 0 l 113 997 l 396 997 q 761 862 631 997 q 892 503 892 726 q 758 141 892 282 q 396 0 625 0 m 217 907 l 217 90 l 393 90 q 683 202 579 90 q 786 503 786 314 q 684 799 786 690 q 393 907 582 907 l 217 907 z "},"E":{"ha":792,"x_min":113,"x_max":711,"o":"m 711 90 l 711 0 l 113 0 l 113 997 l 701 997 l 701 907 l 217 907 l 217 560 l 660 560 l 660 469 l 217 469 l 217 90 l 711 90 z "},"F":{"ha":726,"x_min":113,"x_max":685,"o":"m 217 0 l 113 0 l 113 997 l 685 997 l 685 907 l 217 907 l 217 518 l 619 518 l 619 428 l 217 428 l 217 0 z "},"G":{"ha":1107,"x_min":56,"x_max":1051,"o":"m 560 -21 q 200 127 344 -21 q 56 499 56 275 q 197 869 56 721 q 553 1018 338 1018 q 866 916 739 1018 q 1039 656 993 814 l 921 656 q 790 850 886 775 q 550 925 694 925 q 270 806 378 925 q 163 497 163 686 q 274 190 163 311 q 563 69 385 69 q 824 162 724 69 q 943 414 924 254 l 551 414 l 551 499 l 1051 499 q 915 121 1050 263 q 560 -21 781 -21 z "},"H":{"ha":1000,"x_min":113,"x_max":888,"o":"m 217 0 l 113 0 l 113 997 l 217 997 l 217 560 l 783 560 l 783 997 l 888 997 l 888 0 l 783 0 l 783 469 l 217 469 l 217 0 z "},"I":{"ha":329,"x_min":113,"x_max":217,"o":"m 217 0 l 113 0 l 113 997 l 217 997 l 217 0 z "},"J":{"ha":799,"x_min":26,"x_max":693,"o":"m 693 997 l 693 331 q 603 71 693 163 q 358 -21 514 -21 q 123 65 213 -21 q 26 296 33 150 l 131 296 q 198 131 136 190 q 358 72 260 72 q 527 135 465 72 q 589 322 589 199 l 589 997 l 693 997 z "},"K":{"ha":856,"x_min":113,"x_max":824,"o":"m 217 0 l 113 0 l 113 997 l 217 997 l 217 517 l 689 997 l 810 997 l 324 500 l 824 0 l 689 0 l 217 468 l 217 0 z "},"L":{"ha":724,"x_min":113,"x_max":682,"o":"m 682 0 l 113 0 l 113 997 l 217 997 l 217 93 l 682 93 l 682 0 z "},"M":{"ha":1235,"x_min":113,"x_max":1122,"o":"m 571 0 l 210 846 l 210 0 l 113 0 l 113 997 l 247 997 l 617 128 l 989 997 l 1122 997 l 1122 0 l 1026 0 l 1026 846 l 663 0 l 571 0 z "},"N":{"ha":1015,"x_min":113,"x_max":903,"o":"m 792 0 l 210 850 l 210 0 l 113 0 l 113 997 l 228 997 l 804 158 l 804 997 l 903 997 l 903 0 l 792 0 z "},"O":{"ha":1117,"x_min":56,"x_max":1063,"o":"m 918 130 q 846 55 918 130 q 558 -21 774 -21 q 199 130 343 -21 q 56 500 56 281 q 199 869 56 719 q 558 1018 343 1018 q 918 869 774 1018 q 1063 500 1063 719 q 918 130 1063 281 m 558 72 q 844 195 733 72 q 954 500 954 318 q 844 803 954 682 q 558 925 733 925 q 274 803 385 925 q 163 500 163 682 q 274 195 163 318 q 558 72 385 72 z "},"P":{"ha":835,"x_min":113,"x_max":786,"o":"m 440 367 l 217 367 l 217 0 l 113 0 l 113 997 l 440 997 q 692 915 597 997 q 786 683 786 832 q 692 451 786 535 q 440 367 597 367 m 439 908 l 217 908 l 217 456 l 439 456 q 617 515 551 456 q 682 683 682 575 q 617 849 682 790 q 439 908 551 908 z "},"Q":{"ha":1117,"x_min":56,"x_max":1063,"o":"m 558 -21 q 199 130 343 -21 q 56 500 56 281 q 199 869 56 719 q 558 1018 343 1018 q 918 869 774 1018 q 1063 500 1063 719 q 989 224 1063 349 q 792 36 915 100 l 960 -253 l 850 -253 l 701 -1 q 558 -21 632 -21 m 558 72 q 844 195 733 72 q 954 500 954 318 q 844 803 954 682 q 558 925 733 925 q 274 803 385 925 q 163 500 163 682 q 274 195 163 318 q 558 72 385 72 z "},"R":{"ha":885,"x_min":113,"x_max":838,"o":"m 217 0 l 113 0 l 113 997 l 468 997 q 719 918 628 997 q 811 696 811 839 q 742 505 811 583 q 556 407 674 426 l 838 0 l 713 0 l 444 394 l 217 394 l 217 0 m 217 910 l 217 482 l 460 482 q 642 538 576 482 q 707 696 707 593 q 642 854 707 799 q 460 910 576 910 l 217 910 z "},"S":{"ha":893,"x_min":72,"x_max":811,"o":"m 811 276 q 715 69 811 153 q 450 -14 618 -14 q 179 73 279 -14 q 72 304 79 160 l 178 304 q 253 133 185 194 q 449 71 322 71 q 630 123 558 71 q 701 263 701 175 q 656 379 701 339 q 501 442 610 419 l 375 467 q 104 728 104 521 q 200 930 104 849 q 443 1011 296 1011 q 690 925 590 1011 q 799 699 790 839 l 692 699 q 618 863 686 799 q 444 926 550 926 q 272 869 335 926 q 210 733 210 813 q 265 615 210 653 q 421 557 321 576 l 547 531 q 745 444 679 503 q 811 276 811 385 z "},"T":{"ha":828,"x_min":28,"x_max":800,"o":"m 465 0 l 363 0 l 363 904 l 28 904 l 28 997 l 800 997 l 800 904 l 465 904 l 465 0 z "},"U":{"ha":949,"x_min":110,"x_max":839,"o":"m 839 997 l 839 342 q 740 77 839 175 q 475 -21 640 -21 q 209 77 308 -21 q 110 342 110 175 l 110 997 l 214 997 l 214 336 q 286 144 214 215 q 475 72 358 72 q 663 144 592 72 q 735 336 735 215 l 735 997 l 839 997 z "},"V":{"ha":921,"x_min":31,"x_max":890,"o":"m 890 997 l 517 0 l 403 0 l 31 997 l 139 997 l 461 119 l 786 997 l 890 997 z "},"W":{"ha":1285,"x_min":38,"x_max":1249,"o":"m 876 0 l 643 856 l 408 0 l 300 0 l 38 997 l 139 997 l 354 151 l 588 997 l 699 997 l 929 149 l 1146 997 l 1249 997 l 986 0 l 876 0 z "},"X":{"ha":889,"x_min":47,"x_max":843,"o":"m 165 0 l 47 0 l 376 511 l 72 997 l 192 997 l 449 582 l 711 997 l 826 997 l 518 508 l 843 0 l 722 0 l 446 440 l 165 0 z "},"Y":{"ha":860,"x_min":14,"x_max":846,"o":"m 481 374 l 481 0 l 376 0 l 376 374 l 14 997 l 128 997 l 432 471 l 738 997 l 846 997 l 481 374 z "},"Z":{"ha":835,"x_min":53,"x_max":783,"o":"m 783 0 l 53 0 l 53 75 l 632 907 l 71 907 l 71 997 l 763 997 l 763 921 l 182 90 l 783 90 l 783 0 z "},"[":{"ha":425,"x_min":135,"x_max":374,"o":"m 374 -268 l 135 -268 l 135 997 l 374 997 l 374 915 l 232 915 l 232 -186 l 374 -186 l 374 -268 z "},"\\":{"ha":671,"x_min":-19,"x_max":692,"o":"m 692 -268 l 596 -268 l -19 997 l 75 997 l 692 -268 z "},"]":{"ha":425,"x_min":51,"x_max":289,"o":"m 289 -268 l 51 -268 l 51 -186 l 193 -186 l 193 915 l 51 915 l 51 997 l 289 997 l 289 -268 z "},"^":{"ha":917,"x_min":122,"x_max":794,"o":"m 700 381 l 458 846 l 218 381 l 122 381 l 414 939 l 504 939 l 794 381 l 700 381 z "},"_":{"ha":694,"x_min":0,"x_max":694,"o":"m 694 -268 l 0 -268 l 0 -186 l 694 -186 l 694 -268 z "},"`":{"ha":694,"x_min":218,"x_max":476,"o":"m 476 817 l 367 817 l 218 1003 l 335 1003 l 476 817 z "},"a":{"ha":738,"x_min":60,"x_max":639,"o":"m 556 0 l 556 133 q 459 25 524 64 q 310 -14 394 -14 q 128 45 196 -14 q 60 203 60 104 q 396 421 60 421 q 546 413 438 421 l 546 474 q 499 617 546 565 q 369 668 453 668 q 227 616 279 668 q 174 475 175 564 l 85 475 q 165 672 88 597 q 368 746 243 746 q 567 675 496 746 q 639 476 639 604 l 639 0 l 556 0 m 153 206 q 200 98 153 139 q 324 57 247 57 q 485 119 425 57 q 546 283 546 181 l 546 349 q 400 356 468 356 q 153 206 153 356 z "},"b":{"ha":828,"x_min":106,"x_max":776,"o":"m 688 641 q 732 589 688 641 q 776 367 776 536 q 688 92 776 197 q 454 -14 600 -14 q 302 30 369 -14 q 196 154 235 74 l 196 0 l 106 0 l 106 997 l 203 997 l 203 578 q 304 702 238 658 q 454 746 371 746 q 688 641 600 746 m 613 150 q 645 190 613 150 q 678 367 678 229 q 613 583 678 504 q 439 661 547 661 q 267 583 333 661 q 201 369 201 506 q 267 152 201 233 q 439 71 333 71 q 613 150 547 71 z "},"c":{"ha":753,"x_min":51,"x_max":701,"o":"m 379 -15 q 143 92 235 -15 q 51 367 51 199 q 143 640 51 533 q 379 746 235 746 q 593 666 507 746 q 701 449 679 586 l 603 449 q 527 605 586 549 q 379 661 468 661 q 213 579 276 661 q 150 367 150 497 q 213 151 150 233 q 379 69 276 69 q 528 126 469 69 q 603 283 586 182 l 701 283 q 595 65 682 144 q 379 -15 508 -15 z "},"d":{"ha":828,"x_min":51,"x_max":722,"o":"m 51 367 q 139 641 51 536 q 374 746 226 746 q 522 701 456 746 q 625 579 589 657 l 625 997 l 722 997 l 722 0 l 632 0 l 632 154 q 526 30 593 74 q 374 -14 458 -14 q 139 91 226 -14 q 51 367 51 196 m 215 583 q 182 543 215 583 q 150 367 150 504 q 215 150 150 229 q 388 71 279 71 q 560 152 494 71 q 626 369 626 233 q 560 583 626 506 q 388 661 494 661 q 215 583 279 661 z "},"e":{"ha":771,"x_min":51,"x_max":718,"o":"m 393 -14 q 145 92 239 -14 q 51 372 51 199 q 147 640 51 533 q 388 746 242 746 q 635 633 543 746 q 715 343 728 519 l 149 343 q 220 138 156 213 q 392 63 285 63 q 544 111 483 63 q 622 247 604 160 l 718 247 q 606 56 693 125 q 393 -14 519 -14 m 386 671 q 223 600 288 671 q 149 410 158 529 l 614 410 q 547 602 607 533 q 386 671 488 671 z "},"f":{"ha":489,"x_min":-3,"x_max":482,"o":"m 267 0 l 169 0 l 169 650 l -3 650 l -3 732 l 169 732 l 169 799 q 222 954 169 900 q 371 1008 275 1008 q 458 993 419 1008 l 458 913 q 388 924 432 924 q 267 799 267 924 l 267 732 l 482 732 l 482 650 l 267 650 l 267 0 z "},"g":{"ha":803,"x_min":51,"x_max":697,"o":"m 382 -283 q 159 -214 242 -283 q 71 -22 76 -144 l 164 -22 q 226 -158 169 -111 q 381 -206 282 -206 q 545 -149 489 -206 q 601 15 601 -93 l 601 168 q 505 49 568 92 q 360 6 442 6 q 136 108 221 6 q 51 376 51 210 q 135 644 51 543 q 358 746 219 746 q 506 701 440 746 q 607 576 571 657 l 607 732 l 697 732 l 697 17 q 615 -204 697 -125 q 382 -283 532 -283 m 149 376 q 208 165 149 242 q 374 89 268 89 q 540 166 476 89 q 603 369 603 243 q 540 583 603 504 q 374 663 478 663 q 209 586 269 663 q 149 376 149 510 z "},"h":{"ha":788,"x_min":106,"x_max":689,"o":"m 203 426 l 203 0 l 106 0 l 106 997 l 203 997 l 203 597 q 300 706 239 665 q 438 746 361 746 q 622 675 554 746 q 689 475 689 604 l 689 0 l 592 0 l 592 442 q 544 604 592 547 q 408 661 497 661 q 263 594 322 661 q 203 426 203 528 z "},"i":{"ha":308,"x_min":75,"x_max":232,"o":"m 210 953 q 221 943 210 953 q 232 901 232 933 q 210 849 232 869 q 153 828 188 828 q 97 849 118 828 q 75 901 75 869 q 97 953 75 933 q 153 974 118 974 q 210 953 188 974 m 203 0 l 106 0 l 106 732 l 203 732 l 203 0 z "},"j":{"ha":307,"x_min":-92,"x_max":233,"o":"m 211 953 q 222 943 211 953 q 233 901 233 933 q 211 849 233 869 q 154 828 189 828 q 97 849 119 828 q 75 901 75 869 q 97 953 75 933 q 154 974 119 974 q 211 953 189 974 m 201 732 l 201 -69 q 147 -227 201 -172 q -1 -282 93 -282 q -92 -268 -58 -282 l -92 -179 q -11 -193 -54 -193 q 106 -68 106 -193 l 106 732 l 201 732 z "},"k":{"ha":703,"x_min":106,"x_max":701,"o":"m 203 0 l 106 0 l 106 997 l 203 997 l 203 392 l 556 732 l 671 732 l 301 374 l 701 0 l 575 0 l 203 351 l 203 0 z "},"l":{"ha":308,"x_min":106,"x_max":203,"o":"m 203 0 l 106 0 l 106 997 l 203 997 l 203 0 z "},"m":{"ha":1261,"x_min":106,"x_max":1163,"o":"m 203 0 l 106 0 l 106 732 l 196 732 l 196 594 q 294 706 232 665 q 435 746 357 746 q 581 701 521 746 q 664 576 642 657 q 765 700 699 654 q 917 746 832 746 q 1097 674 1031 746 q 1163 475 1163 603 l 1163 0 l 1067 0 l 1067 443 q 1019 604 1067 547 q 885 661 972 661 q 742 595 800 661 q 683 429 683 529 l 683 0 l 586 0 l 586 443 q 539 604 586 547 q 404 661 492 661 q 261 595 319 661 q 203 429 203 529 l 203 0 z "},"n":{"ha":788,"x_min":106,"x_max":689,"o":"m 203 426 l 203 0 l 106 0 l 106 732 l 196 732 l 196 594 q 296 705 232 664 q 438 746 360 746 q 622 675 554 746 q 689 475 689 604 l 689 0 l 592 0 l 592 442 q 544 604 592 547 q 408 661 497 661 q 263 594 322 661 q 203 426 203 528 z "},"o":{"ha":799,"x_min":51,"x_max":747,"o":"m 649 94 q 599 40 649 94 q 399 -14 550 -14 q 149 94 247 -14 q 51 367 51 201 q 149 638 51 531 q 399 744 247 744 q 649 638 550 744 q 747 367 747 532 q 649 94 747 201 m 399 71 q 578 151 508 71 q 649 367 649 232 q 578 579 649 499 q 399 660 508 660 q 220 579 290 660 q 150 367 150 499 q 220 151 150 232 q 399 71 290 71 z "},"p":{"ha":828,"x_min":106,"x_max":776,"o":"m 776 367 q 689 91 776 196 q 456 -14 601 -14 q 307 29 374 -14 q 203 150 240 72 l 203 -268 l 106 -268 l 106 732 l 196 732 l 196 574 q 302 700 233 654 q 456 746 371 746 q 688 641 600 746 q 776 367 776 536 m 678 367 q 613 583 678 504 q 439 661 547 661 q 268 582 335 661 q 201 367 201 503 q 267 151 201 232 q 439 71 333 71 q 613 149 547 71 q 678 367 678 228 z "},"q":{"ha":828,"x_min":51,"x_max":722,"o":"m 51 367 q 139 641 51 536 q 374 746 226 746 q 526 699 458 746 q 632 571 594 653 l 632 732 l 722 732 l 722 -268 l 625 -268 l 625 150 q 522 29 588 72 q 374 -14 456 -14 q 139 91 226 -14 q 51 367 51 196 m 150 367 q 215 149 150 228 q 388 71 279 71 q 560 151 494 71 q 626 367 626 232 q 560 583 626 504 q 388 661 494 661 q 215 583 279 661 q 150 367 150 504 z "},"r":{"ha":489,"x_min":106,"x_max":475,"o":"m 203 392 l 203 0 l 106 0 l 106 732 l 196 732 l 196 565 q 309 695 233 647 q 475 743 385 743 l 475 642 q 280 578 357 646 q 203 392 203 510 z "},"s":{"ha":717,"x_min":57,"x_max":653,"o":"m 653 204 q 576 44 653 103 q 364 -14 499 -14 q 148 51 228 -14 q 57 229 68 115 l 150 229 q 213 106 156 151 q 364 60 271 60 q 505 93 454 60 q 556 189 556 126 q 521 272 556 243 q 403 317 486 300 l 297 338 q 85 538 85 378 q 159 688 85 629 q 353 746 233 746 q 557 683 479 746 q 643 510 635 619 l 551 510 q 492 628 544 586 q 353 671 439 671 q 227 637 275 671 q 179 546 179 603 q 215 463 179 492 q 332 418 250 433 l 442 397 q 601 329 550 376 q 653 204 653 282 z "},"t":{"ha":531,"x_min":-10,"x_max":489,"o":"m 482 93 l 482 7 q 376 -14 431 -14 q 221 40 279 -14 q 163 207 163 94 l 163 650 l -10 650 l -10 732 l 163 732 l 163 949 l 260 949 l 260 732 l 489 732 l 489 650 l 260 650 l 260 228 q 396 75 260 75 q 482 93 438 75 z "},"u":{"ha":775,"x_min":99,"x_max":669,"o":"m 574 296 l 574 732 l 669 732 l 669 0 l 579 0 l 579 132 q 488 26 550 67 q 346 -14 425 -14 q 165 53 231 -14 q 99 256 99 121 l 99 732 l 196 732 l 196 276 q 372 71 196 71 q 517 135 460 71 q 574 296 574 199 z "},"v":{"ha":676,"x_min":7,"x_max":669,"o":"m 669 732 l 388 0 l 286 0 l 7 732 l 111 732 l 340 114 l 569 732 l 669 732 z "},"w":{"ha":1049,"x_min":21,"x_max":1028,"o":"m 715 0 l 524 603 l 333 0 l 235 0 l 21 732 l 117 732 l 286 138 l 476 732 l 572 732 l 761 136 l 931 732 l 1028 732 l 813 0 l 715 0 z "},"x":{"ha":693,"x_min":15,"x_max":679,"o":"m 124 0 l 15 0 l 285 375 l 32 732 l 143 732 l 350 436 l 558 732 l 663 732 l 413 372 l 679 0 l 568 0 l 344 314 l 124 0 z "},"y":{"ha":676,"x_min":7,"x_max":669,"o":"m 669 732 l 294 -268 l 190 -268 l 297 10 l 7 732 l 111 732 l 347 126 l 571 732 l 669 732 z "},"z":{"ha":664,"x_min":40,"x_max":626,"o":"m 626 0 l 40 0 l 40 71 l 490 649 l 54 649 l 54 732 l 610 732 l 610 657 l 163 83 l 626 83 l 626 0 z "},"{":{"ha":431,"x_min":31,"x_max":400,"o":"m 31 324 l 31 406 q 138 433 107 406 q 168 521 168 460 l 168 824 q 220 952 168 904 q 357 1000 272 1000 q 400 999 385 1000 l 400 915 q 371 918 390 918 q 292 890 321 918 q 264 811 264 861 l 264 519 q 161 365 264 393 q 264 210 264 339 l 264 -81 q 293 -160 264 -131 q 371 -189 322 -189 q 400 -186 390 -189 l 400 -268 q 358 -271 385 -271 q 220 -223 272 -271 q 168 -94 168 -175 l 168 208 q 138 297 168 269 q 31 324 107 324 z "},"|":{"ha":375,"x_min":140,"x_max":235,"o":"m 235 -268 l 140 -268 l 140 997 l 235 997 l 235 -268 z "},"}":{"ha":431,"x_min":31,"x_max":400,"o":"m 400 406 l 400 324 q 293 297 324 324 q 263 208 263 269 l 263 -94 q 210 -223 263 -175 q 74 -271 158 -271 q 31 -269 46 -271 l 31 -186 q 60 -189 42 -189 q 138 -160 110 -189 q 167 -82 167 -132 l 167 210 q 269 364 167 336 q 167 519 167 390 l 167 810 q 138 890 167 861 q 60 918 108 918 q 31 915 40 918 l 31 997 q 74 1000 46 1000 q 210 952 158 1000 q 263 824 263 904 l 263 521 q 294 433 263 460 q 400 406 325 406 z "},"~":{"ha":917,"x_min":103,"x_max":814,"o":"m 633 364 q 448 432 569 364 q 286 500 326 500 q 210 469 236 500 q 183 368 185 439 l 103 368 q 146 527 97 468 q 282 586 194 586 q 406 552 338 586 q 534 484 474 518 q 631 450 594 450 q 732 582 732 450 l 814 582 q 773 422 821 481 q 633 364 725 364 z "}," ":{"ha":290,"x_min":0,"x_max":0,"o":""},"¡":{"ha":349,"x_min":85,"x_max":264,"o":"m 264 654 q 238 592 264 617 q 175 567 213 567 q 110 591 136 567 q 85 654 85 615 q 110 715 85 690 q 175 740 136 740 q 238 715 213 740 q 264 654 264 690 m 232 -268 l 118 -268 l 139 483 l 211 483 l 232 -268 z "},"¢":{"ha":781,"x_min":51,"x_max":729,"o":"m 431 -119 l 361 -119 l 361 -12 q 138 104 224 -1 q 51 367 51 210 q 138 627 51 522 q 361 743 224 732 l 361 857 l 431 857 l 431 743 q 630 652 551 732 q 729 449 708 572 l 631 449 q 553 601 614 543 q 393 660 493 660 q 217 578 285 660 q 149 367 149 496 q 217 153 149 236 q 393 71 285 71 q 551 129 492 71 q 631 283 611 188 l 729 283 q 632 79 711 160 q 431 -12 553 -1 l 431 -119 z "},"£":{"ha":760,"x_min":36,"x_max":707,"o":"m 208 132 q 140 102 163 132 q 117 0 118 72 l 36 0 q 67 142 32 86 q 168 208 103 197 l 168 436 l 51 436 l 51 503 l 168 503 l 168 667 q 240 875 168 797 q 431 953 313 953 q 619 886 544 953 q 701 696 694 819 l 601 696 q 549 824 596 781 q 428 868 503 868 q 308 813 351 868 q 265 657 265 758 l 265 503 l 535 503 l 535 436 l 265 436 l 265 204 q 397 135 308 192 q 532 78 485 78 q 625 210 629 78 l 707 210 q 669 49 714 107 q 538 -10 624 -10 q 422 26 485 -10 q 303 97 360 61 q 208 132 246 132 z "},"¤":{"ha":917,"x_min":132,"x_max":785,"o":"m 633 240 q 458 178 563 178 q 283 240 354 178 l 189 144 l 132 201 l 225 294 q 168 469 168 369 q 225 646 168 569 l 132 739 l 189 794 l 282 700 q 458 761 358 761 q 635 700 558 761 l 728 794 l 785 739 l 692 646 q 749 469 749 569 q 692 294 749 369 l 785 201 l 728 144 l 633 240 m 309 310 q 338 281 309 310 q 458 251 367 251 q 608 310 550 251 q 665 469 665 368 q 608 630 665 572 q 458 688 550 688 q 309 630 367 688 q 251 469 251 572 q 309 310 251 368 z "},"¥":{"ha":769,"x_min":35,"x_max":735,"o":"m 708 240 l 433 240 l 433 0 l 335 0 l 335 240 l 60 240 l 60 308 l 335 308 l 335 351 l 294 429 l 60 429 l 60 496 l 260 496 l 35 938 l 143 938 l 388 450 l 633 938 l 735 938 l 507 496 l 708 496 l 708 429 l 474 429 l 433 351 l 433 308 l 708 308 l 708 240 z "},"¦":{"ha":374,"x_min":140,"x_max":233,"o":"m 140 997 l 233 997 l 233 417 l 140 417 l 140 997 m 140 313 l 233 313 l 233 -268 l 140 -268 l 140 313 z "},"§":{"ha":778,"x_min":65,"x_max":713,"o":"m 65 333 q 114 460 65 407 q 249 539 163 514 q 113 728 113 593 q 188 890 113 828 q 381 951 264 951 q 583 883 504 951 q 671 710 663 815 l 576 710 q 515 830 568 783 q 381 876 461 876 q 254 838 303 876 q 206 735 206 799 q 246 636 206 671 q 376 582 286 601 l 483 557 q 658 479 603 531 q 713 342 713 428 q 666 213 713 268 q 535 129 619 157 q 647 58 613 103 q 682 -57 682 13 q 600 -218 682 -154 q 394 -282 518 -282 q 174 -215 257 -282 q 75 -33 90 -149 l 169 -33 q 239 -160 181 -112 q 390 -207 297 -207 q 531 -165 476 -207 q 586 -60 586 -124 q 546 37 586 3 q 413 90 506 71 l 301 114 q 65 333 65 163 m 158 342 q 233 221 158 261 q 421 181 308 181 q 568 224 517 181 q 619 332 619 268 q 544 452 619 413 q 353 492 468 492 q 209 449 260 492 q 158 342 158 406 z "},"¨":{"ha":694,"x_min":144,"x_max":550,"o":"m 550 903 q 528 849 550 871 q 472 828 506 828 q 415 849 438 828 q 393 903 393 871 q 415 958 393 938 q 472 979 438 979 q 528 958 507 979 q 550 903 550 938 m 301 903 q 279 849 301 871 q 224 828 257 828 q 167 849 189 828 q 144 903 144 871 q 167 958 144 938 q 224 979 189 979 q 280 958 258 979 q 301 903 301 938 z "},"©":{"ha":1093,"x_min":54,"x_max":1039,"o":"m 546 -12 q 196 128 338 -12 q 54 469 54 268 q 195 813 54 672 q 546 953 336 953 q 897 813 756 953 q 1039 469 1039 672 q 897 128 1039 268 q 546 -12 756 -12 m 243 169 q 303 108 243 169 q 546 46 363 46 q 849 169 729 46 q 969 469 969 293 q 849 770 969 647 q 546 893 729 893 q 243 770 363 893 q 124 469 124 647 q 243 169 124 293 m 708 415 l 781 415 q 701 271 767 326 q 544 215 636 215 q 372 289 442 215 q 303 469 303 363 q 372 651 303 578 q 544 724 442 724 q 701 668 636 724 q 781 524 767 613 l 708 524 q 652 624 697 585 q 546 664 607 664 q 423 609 471 664 q 375 469 375 554 q 423 330 375 385 q 546 275 471 275 q 653 315 608 275 q 708 415 699 354 z "},"ª":{"ha":594,"x_min":44,"x_max":521,"o":"m 447 354 l 447 456 q 249 343 392 343 q 100 390 156 343 q 44 517 44 438 q 317 690 44 690 q 438 683 354 690 l 438 731 q 401 840 438 800 q 297 879 364 879 q 185 840 226 879 q 143 732 144 801 l 64 732 q 131 888 65 828 q 297 947 196 947 q 462 890 403 947 q 521 732 521 833 l 521 354 l 447 354 m 128 519 q 165 438 128 468 q 264 407 203 407 q 390 453 343 407 q 438 576 438 499 l 438 626 q 322 633 389 633 q 128 519 128 633 z "},"«":{"ha":639,"x_min":44,"x_max":594,"o":"m 343 86 l 239 86 l 44 371 l 239 656 l 343 656 l 151 371 l 343 86 m 594 86 l 490 86 l 296 371 l 490 656 l 594 656 l 404 371 l 594 86 z "},"¬":{"ha":917,"x_min":111,"x_max":792,"o":"m 792 290 l 703 290 l 703 560 l 111 560 l 111 642 l 792 642 l 792 290 z "},"­":{"ha":501,"x_min":32,"x_max":471,"o":"m 471 340 l 32 340 l 32 426 l 471 426 l 471 340 z "},"®":{"ha":1093,"x_min":54,"x_max":1039,"o":"m 546 -12 q 196 128 338 -12 q 54 469 54 268 q 195 813 54 672 q 546 953 336 953 q 897 813 756 953 q 1039 469 1039 672 q 897 128 1039 268 q 546 -12 756 -12 m 243 169 q 303 108 243 169 q 546 46 363 46 q 849 169 729 46 q 969 469 969 293 q 849 770 969 647 q 546 893 729 893 q 243 770 363 893 q 124 469 124 647 q 243 169 124 293 m 667 225 l 544 411 l 447 411 l 447 225 l 379 225 l 379 714 l 560 714 q 690 674 643 714 q 738 563 738 633 q 704 470 738 508 q 617 419 671 432 l 750 225 l 667 225 m 554 657 l 447 657 l 447 468 l 554 468 q 640 493 610 468 q 669 563 669 518 q 640 632 669 607 q 554 657 610 657 z "},"¯":{"ha":694,"x_min":151,"x_max":544,"o":"m 544 836 l 151 836 l 151 906 l 544 906 l 544 836 z "},"°":{"ha":656,"x_min":29,"x_max":626,"o":"m 326 421 q 115 505 201 421 q 29 713 29 589 q 115 921 29 838 q 326 1004 201 1004 q 540 921 454 1004 q 626 713 626 838 q 540 505 626 589 q 326 421 454 421 m 326 492 q 482 553 422 492 q 542 713 542 615 q 482 872 542 810 q 326 933 422 933 q 172 872 232 933 q 113 713 113 810 q 172 554 113 617 q 326 492 232 492 z "},"±":{"ha":917,"x_min":111,"x_max":806,"o":"m 503 189 l 414 189 l 414 492 l 111 492 l 111 574 l 414 574 l 414 876 l 503 876 l 503 574 l 806 574 l 806 492 l 503 492 l 503 189 m 806 1 l 111 1 l 111 83 l 806 83 l 806 1 z "},"²":{"ha":468,"x_min":35,"x_max":426,"o":"m 426 778 l 426 715 l 49 715 l 49 756 l 243 953 q 322 1043 297 1007 q 346 1121 346 1079 q 313 1194 346 1164 q 226 1224 279 1224 q 137 1193 171 1224 q 103 1113 103 1163 l 35 1113 q 90 1239 35 1190 q 231 1288 146 1288 q 367 1241 314 1288 q 419 1128 419 1194 q 391 1033 419 1076 q 296 924 363 990 l 157 778 l 426 778 z "},"³":{"ha":528,"x_min":51,"x_max":472,"o":"m 472 875 q 414 756 472 801 q 261 710 356 710 q 111 755 169 710 q 51 875 53 800 l 121 875 q 163 798 124 826 q 263 769 201 769 q 362 798 325 769 q 399 874 399 826 q 358 949 399 921 q 249 976 317 976 l 188 976 l 188 1036 l 246 1036 q 336 1064 301 1036 q 371 1135 371 1092 q 339 1203 371 1176 q 256 1229 307 1229 q 171 1202 203 1229 q 136 1131 139 1175 l 68 1131 q 124 1243 71 1197 q 258 1289 178 1289 q 393 1247 342 1289 q 444 1139 444 1204 q 346 1011 444 1053 q 439 960 406 996 q 472 875 472 925 z "},"´":{"ha":694,"x_min":218,"x_max":475,"o":"m 328 817 l 218 817 l 358 1003 l 475 1003 l 328 817 z "},"µ":{"ha":786,"x_min":106,"x_max":681,"o":"m 203 -268 l 106 -268 l 106 732 l 203 732 l 203 285 q 252 124 203 178 q 386 71 301 71 q 531 133 478 71 q 585 292 585 194 l 585 732 l 681 732 l 681 0 l 586 0 l 586 118 q 506 22 561 58 q 382 -14 451 -14 q 194 78 250 -14 l 203 -268 z "},"¶":{"ha":907,"x_min":49,"x_max":879,"o":"m 503 -268 l 410 -268 l 410 311 q 148 391 247 307 q 49 626 49 475 q 143 856 49 774 q 394 939 238 939 l 879 939 l 879 854 l 732 854 l 732 -268 l 638 -268 l 638 854 l 503 854 l 503 -268 z "},"·":{"ha":358,"x_min":92,"x_max":267,"o":"m 242 435 q 255 422 242 435 q 267 371 267 410 q 242 308 267 332 q 179 283 218 283 q 117 308 142 283 q 92 371 92 332 q 117 435 92 410 q 179 460 142 460 q 242 435 218 460 z "},"¸":{"ha":694,"x_min":199,"x_max":494,"o":"m 494 -164 q 454 -244 494 -214 q 353 -275 414 -275 q 249 -244 290 -275 q 199 -157 207 -214 l 267 -157 q 351 -221 279 -221 q 401 -203 382 -221 q 419 -161 419 -186 q 384 -99 419 -118 q 297 -86 349 -81 l 329 14 l 388 14 l 365 -51 q 458 -85 422 -54 q 494 -164 494 -117 z "},"¹":{"ha":307,"x_min":17,"x_max":207,"o":"m 207 715 l 136 715 l 136 1218 l 17 1218 l 17 1279 l 207 1279 l 207 715 z "},"º":{"ha":676,"x_min":51,"x_max":624,"o":"m 338 343 q 132 428 213 343 q 51 646 51 514 q 132 862 51 776 q 338 947 213 947 q 542 862 461 947 q 624 646 624 776 q 542 429 624 515 q 338 343 461 343 m 196 481 q 224 450 196 481 q 338 419 251 419 q 479 481 424 419 q 535 646 535 543 q 479 809 535 747 q 338 871 424 871 q 197 809 253 871 q 140 646 140 747 q 196 481 140 543 z "},"»":{"ha":639,"x_min":44,"x_max":594,"o":"m 44 656 l 149 656 l 343 371 l 149 86 l 44 86 l 235 371 l 44 656 m 296 656 l 400 656 l 594 371 l 400 86 l 296 86 l 488 371 l 296 656 z "},"¼":{"ha":933,"x_min":17,"x_max":890,"o":"m 207 375 l 136 375 l 136 878 l 17 878 l 17 939 l 207 939 l 207 375 m 200 0 l 118 0 l 646 939 l 729 939 l 200 0 m 890 129 l 808 129 l 808 0 l 738 0 l 738 129 l 439 129 l 439 179 l 757 564 l 808 564 l 808 192 l 890 192 l 890 129 m 524 192 l 738 192 l 738 454 l 524 192 z "},"½":{"ha":1006,"x_min":17,"x_max":964,"o":"m 207 375 l 136 375 l 136 878 l 17 878 l 17 939 l 207 939 l 207 375 m 200 0 l 118 0 l 646 939 l 729 939 l 200 0 m 964 63 l 964 0 l 586 0 l 586 40 l 781 238 q 859 328 835 292 q 883 406 883 364 q 850 478 883 449 q 764 508 817 508 q 674 478 708 508 q 640 397 640 447 l 572 397 q 628 524 572 475 q 768 572 683 572 q 905 526 851 572 q 958 413 958 479 q 929 318 958 361 q 833 208 900 275 l 694 63 l 964 63 z "},"¾":{"ha":1164,"x_min":51,"x_max":1121,"o":"m 472 535 q 414 415 472 461 q 261 369 356 369 q 111 415 169 369 q 51 535 53 460 l 121 535 q 163 458 124 486 q 263 429 201 429 q 362 458 325 429 q 399 533 399 486 q 358 608 399 581 q 249 636 317 636 l 188 636 l 188 696 l 246 696 q 336 724 301 696 q 371 794 371 751 q 339 863 371 836 q 256 889 307 889 q 171 862 203 889 q 136 790 139 835 l 68 790 q 124 903 71 857 q 258 949 178 949 q 393 906 342 949 q 444 799 444 864 q 346 671 444 713 q 439 620 406 656 q 472 535 472 585 m 421 0 l 339 0 l 867 939 l 950 939 l 421 0 m 1121 129 l 1039 129 l 1039 0 l 968 0 l 968 129 l 671 129 l 671 179 l 988 564 l 1039 564 l 1039 192 l 1121 192 l 1121 129 m 754 192 l 968 192 l 968 454 l 754 192 z "},"¿":{"ha":611,"x_min":25,"x_max":586,"o":"m 239 654 q 265 715 239 690 q 329 740 290 740 q 393 715 367 740 q 419 654 419 690 q 394 590 419 615 q 329 565 368 565 q 265 590 290 565 q 239 654 239 615 m 494 -29 l 586 -29 q 503 -211 582 -140 q 306 -282 425 -282 q 102 -213 179 -282 q 25 -40 25 -144 q 55 69 25 18 q 149 176 85 119 l 217 239 q 288 334 271 288 q 299 483 304 381 l 367 483 q 373 323 386 385 q 300 204 360 261 l 225 133 q 151 49 174 85 q 129 -32 129 14 q 179 -149 129 -103 q 313 -196 229 -196 q 442 -149 392 -196 q 494 -29 492 -103 z "},"À":{"ha":963,"x_min":38,"x_max":925,"o":"m 533 1082 l 424 1082 l 276 1268 l 393 1268 l 533 1082 m 815 0 l 711 276 l 246 276 l 140 0 l 38 0 l 425 997 l 539 997 l 925 0 l 815 0 m 479 886 l 278 361 l 678 361 l 479 886 z "},"Á":{"ha":963,"x_min":38,"x_max":925,"o":"m 538 1082 l 429 1082 l 568 1268 l 685 1268 l 538 1082 m 815 0 l 711 276 l 246 276 l 140 0 l 38 0 l 425 997 l 539 997 l 925 0 l 815 0 m 479 886 l 278 361 l 678 361 l 479 886 z "},"Â":{"ha":963,"x_min":38,"x_max":925,"o":"m 356 1082 l 244 1082 l 428 1268 l 535 1268 l 718 1082 l 608 1082 l 481 1207 l 356 1082 m 815 0 l 711 276 l 246 276 l 140 0 l 38 0 l 425 997 l 539 997 l 925 0 l 815 0 m 479 886 l 278 361 l 678 361 l 479 886 z "},"Ã":{"ha":963,"x_min":38,"x_max":925,"o":"m 319 1081 l 253 1081 q 280 1214 246 1164 q 376 1264 314 1264 q 451 1239 415 1264 q 517 1188 488 1214 q 572 1163 547 1163 q 635 1271 636 1163 l 703 1271 q 675 1138 710 1188 q 578 1089 640 1089 q 469 1139 529 1089 q 382 1189 410 1189 q 319 1081 317 1189 m 815 0 l 711 276 l 246 276 l 140 0 l 38 0 l 425 997 l 539 997 l 925 0 l 815 0 m 479 886 l 278 361 l 678 361 l 479 886 z "},"Ä":{"ha":963,"x_min":38,"x_max":925,"o":"m 683 1168 q 661 1115 683 1136 q 606 1093 639 1093 q 549 1115 571 1093 q 526 1168 526 1136 q 549 1224 526 1203 q 606 1244 571 1244 q 662 1224 640 1244 q 683 1168 683 1203 m 435 1168 q 413 1115 435 1136 q 357 1093 390 1093 q 300 1115 322 1093 q 278 1168 278 1136 q 300 1224 278 1203 q 357 1244 322 1244 q 413 1224 392 1244 q 435 1168 435 1203 m 815 0 l 711 276 l 246 276 l 140 0 l 38 0 l 425 997 l 539 997 l 925 0 l 815 0 m 479 886 l 278 361 l 678 361 l 479 886 z "},"Å":{"ha":963,"x_min":38,"x_max":925,"o":"m 594 1119 q 570 1098 594 1119 q 481 1076 547 1076 q 368 1119 414 1076 q 322 1224 322 1163 q 368 1328 322 1285 q 481 1371 414 1371 q 594 1328 547 1371 q 640 1224 640 1285 q 594 1119 640 1163 m 481 1133 q 547 1157 521 1133 q 574 1224 574 1181 q 547 1290 574 1265 q 481 1314 521 1314 q 415 1290 442 1314 q 389 1224 389 1265 q 415 1157 389 1181 q 481 1133 442 1133 m 815 0 l 711 276 l 246 276 l 140 0 l 38 0 l 425 997 l 539 997 l 925 0 l 815 0 m 479 886 l 278 361 l 678 361 l 479 886 z "},"Æ":{"ha":1218,"x_min":10,"x_max":1138,"o":"m 606 276 l 274 276 l 122 0 l 10 0 l 560 997 l 1128 997 l 1128 907 l 710 907 l 710 560 l 1086 560 l 1086 469 l 710 469 l 710 90 l 1138 90 l 1138 0 l 606 0 l 606 276 m 606 361 l 606 883 l 319 361 l 606 361 z "},"Ç":{"ha":1071,"x_min":56,"x_max":1015,"o":"m 681 -164 q 640 -244 681 -214 q 540 -275 600 -275 q 435 -244 476 -275 q 386 -157 393 -214 l 454 -157 q 538 -221 464 -221 q 587 -203 568 -221 q 606 -161 606 -186 q 570 -99 606 -118 q 483 -86 535 -81 l 504 -19 q 183 143 310 -4 q 56 500 56 290 q 195 869 56 721 q 543 1018 335 1018 q 854 908 722 1018 q 1015 621 986 799 l 906 621 q 781 840 882 754 q 543 925 681 925 q 270 804 378 925 q 163 500 163 683 q 270 193 163 314 q 543 72 378 72 q 781 158 681 72 q 906 378 882 243 l 1015 378 q 862 96 988 206 q 564 -21 736 -14 l 553 -51 q 644 -85 608 -54 q 681 -164 681 -117 z "},"È":{"ha":792,"x_min":113,"x_max":711,"o":"m 465 1082 l 357 1082 l 208 1268 l 325 1268 l 465 1082 m 711 90 l 711 0 l 113 0 l 113 997 l 701 997 l 701 907 l 217 907 l 217 560 l 660 560 l 660 469 l 217 469 l 217 90 l 711 90 z "},"É":{"ha":792,"x_min":113,"x_max":711,"o":"m 471 1082 l 361 1082 l 501 1268 l 618 1268 l 471 1082 m 711 90 l 711 0 l 113 0 l 113 997 l 701 997 l 701 907 l 217 907 l 217 560 l 660 560 l 660 469 l 217 469 l 217 90 l 711 90 z "},"Ê":{"ha":792,"x_min":113,"x_max":711,"o":"m 288 1082 l 176 1082 l 360 1268 l 468 1268 l 651 1082 l 540 1082 l 414 1207 l 288 1082 m 711 90 l 711 0 l 113 0 l 113 997 l 701 997 l 701 907 l 217 907 l 217 560 l 660 560 l 660 469 l 217 469 l 217 90 l 711 90 z "},"Ë":{"ha":792,"x_min":113,"x_max":711,"o":"m 617 1168 q 594 1115 617 1136 q 539 1093 572 1093 q 482 1115 504 1093 q 460 1168 460 1136 q 482 1224 460 1203 q 539 1244 504 1244 q 594 1223 572 1244 q 617 1168 617 1201 m 368 1168 q 346 1115 368 1136 q 289 1093 324 1093 q 233 1115 256 1093 q 211 1168 211 1136 q 233 1224 211 1203 q 289 1244 254 1244 q 347 1224 325 1244 q 368 1168 368 1203 m 711 90 l 711 0 l 113 0 l 113 997 l 701 997 l 701 907 l 217 907 l 217 560 l 660 560 l 660 469 l 217 469 l 217 90 l 711 90 z "},"Ì":{"ha":329,"x_min":-26,"x_max":217,"o":"m 217 1082 l 108 1082 l -26 1268 l 90 1268 l 217 1082 m 217 0 l 113 0 l 113 997 l 217 997 l 217 0 z "},"Í":{"ha":329,"x_min":113,"x_max":354,"o":"m 221 1082 l 113 1082 l 239 1268 l 354 1268 l 221 1082 m 217 0 l 113 0 l 113 997 l 217 997 l 217 0 z "},"Î":{"ha":329,"x_min":-57,"x_max":386,"o":"m 54 1082 l -57 1082 l 110 1268 l 221 1268 l 386 1082 l 275 1082 l 165 1207 l 54 1082 m 217 0 l 113 0 l 113 997 l 217 997 l 217 0 z "},"Ï":{"ha":329,"x_min":-25,"x_max":356,"o":"m 356 1168 q 335 1115 356 1136 q 282 1093 314 1093 q 227 1115 249 1093 q 206 1168 206 1136 q 226 1224 206 1203 q 282 1244 247 1244 q 335 1224 314 1244 q 356 1168 356 1203 m 126 1168 q 105 1115 126 1136 q 50 1093 83 1093 q -3 1115 18 1093 q -25 1168 -25 1136 q -4 1224 -25 1203 q 50 1244 17 1244 q 105 1224 83 1244 q 126 1168 126 1203 m 217 0 l 113 0 l 113 997 l 217 997 l 217 0 z "},"Ð":{"ha":1006,"x_min":8,"x_max":950,"o":"m 454 0 l 171 0 l 171 472 l 8 472 l 8 557 l 171 557 l 171 997 l 454 997 q 819 862 689 997 q 950 503 950 726 q 817 141 950 282 q 454 0 683 0 m 492 472 l 275 472 l 275 90 l 451 90 q 741 202 638 90 q 844 503 844 314 q 742 799 844 690 q 451 907 640 907 l 275 907 l 275 557 l 492 557 l 492 472 z "},"Ñ":{"ha":1015,"x_min":113,"x_max":903,"o":"m 346 1081 l 281 1081 q 307 1214 274 1164 q 403 1264 340 1264 q 478 1239 442 1264 q 544 1188 514 1214 q 600 1163 575 1163 q 663 1271 663 1163 l 729 1271 q 702 1139 736 1189 q 606 1089 668 1089 q 531 1114 567 1089 q 465 1164 494 1139 q 410 1189 435 1189 q 346 1081 346 1189 m 792 0 l 210 850 l 210 0 l 113 0 l 113 997 l 228 997 l 804 158 l 804 997 l 903 997 l 903 0 l 792 0 z "},"Ò":{"ha":1117,"x_min":56,"x_max":1063,"o":"m 611 1082 l 503 1082 l 354 1268 l 471 1268 l 611 1082 m 918 130 q 846 55 918 130 q 558 -21 774 -21 q 199 130 343 -21 q 56 500 56 281 q 199 869 56 719 q 558 1018 343 1018 q 918 869 774 1018 q 1063 500 1063 719 q 918 130 1063 281 m 558 72 q 844 195 733 72 q 954 500 954 318 q 844 803 954 682 q 558 925 733 925 q 274 803 385 925 q 163 500 163 682 q 274 195 163 318 q 558 72 385 72 z "},"Ó":{"ha":1117,"x_min":56,"x_max":1063,"o":"m 615 1082 l 507 1082 l 647 1268 l 763 1268 l 615 1082 m 918 130 q 846 55 918 130 q 558 -21 774 -21 q 199 130 343 -21 q 56 500 56 281 q 199 869 56 719 q 558 1018 343 1018 q 918 869 774 1018 q 1063 500 1063 719 q 918 130 1063 281 m 558 72 q 844 195 733 72 q 954 500 954 318 q 844 803 954 682 q 558 925 733 925 q 274 803 385 925 q 163 500 163 682 q 274 195 163 318 q 558 72 385 72 z "},"Ô":{"ha":1117,"x_min":56,"x_max":1063,"o":"m 433 1082 l 322 1082 l 506 1268 l 613 1268 l 797 1082 l 686 1082 l 558 1207 l 433 1082 m 918 130 q 846 55 918 130 q 558 -21 774 -21 q 199 130 343 -21 q 56 500 56 281 q 199 869 56 719 q 558 1018 343 1018 q 918 869 774 1018 q 1063 500 1063 719 q 918 130 1063 281 m 558 72 q 844 195 733 72 q 954 500 954 318 q 844 803 954 682 q 558 925 733 925 q 274 803 385 925 q 163 500 163 682 q 274 195 163 318 q 558 72 385 72 z "},"Õ":{"ha":1117,"x_min":56,"x_max":1063,"o":"m 397 1081 l 332 1081 q 358 1214 324 1164 q 454 1264 392 1264 q 529 1239 493 1264 q 595 1188 565 1214 q 650 1163 625 1163 q 714 1271 714 1163 l 781 1271 q 753 1139 788 1189 q 657 1089 719 1089 q 582 1114 618 1089 q 516 1164 546 1139 q 461 1189 486 1189 q 397 1081 397 1189 m 918 130 q 846 55 918 130 q 558 -21 774 -21 q 199 130 343 -21 q 56 500 56 281 q 199 869 56 719 q 558 1018 343 1018 q 918 869 774 1018 q 1063 500 1063 719 q 918 130 1063 281 m 558 72 q 844 195 733 72 q 954 500 954 318 q 844 803 954 682 q 558 925 733 925 q 274 803 385 925 q 163 500 163 682 q 274 195 163 318 q 558 72 385 72 z "},"Ö":{"ha":1117,"x_min":56,"x_max":1063,"o":"m 761 1168 q 740 1115 761 1136 q 685 1093 718 1093 q 628 1115 650 1093 q 606 1168 606 1136 q 628 1224 606 1203 q 685 1244 650 1244 q 740 1224 718 1244 q 761 1168 761 1203 m 513 1168 q 490 1115 513 1136 q 435 1093 468 1093 q 378 1115 400 1093 q 356 1168 356 1136 q 378 1224 356 1203 q 435 1244 400 1244 q 491 1224 469 1244 q 513 1168 513 1203 m 918 130 q 846 55 918 130 q 558 -21 774 -21 q 199 130 343 -21 q 56 500 56 281 q 199 869 56 719 q 558 1018 343 1018 q 918 869 774 1018 q 1063 500 1063 719 q 918 130 1063 281 m 558 72 q 844 195 733 72 q 954 500 954 318 q 844 803 954 682 q 558 925 733 925 q 274 803 385 925 q 163 500 163 682 q 274 195 163 318 q 558 72 385 72 z "},"×":{"ha":917,"x_min":156,"x_max":761,"o":"m 213 165 l 156 224 l 401 469 l 156 715 l 213 772 l 458 526 l 703 772 l 761 715 l 515 469 l 761 224 l 703 167 l 458 411 l 213 165 z "},"Ø":{"ha":1117,"x_min":56,"x_max":1063,"o":"m 190 0 l 90 0 l 200 129 q 56 500 56 281 q 199 869 56 719 q 558 1018 343 1018 q 863 918 729 1018 l 929 997 l 1029 997 l 919 867 q 1063 500 1063 717 q 918 130 1063 281 q 558 -21 774 -21 q 257 79 388 -21 l 190 0 m 163 500 q 264 207 163 326 l 800 844 q 558 925 694 925 q 274 803 385 925 q 163 500 163 682 m 558 72 q 844 195 733 72 q 954 500 954 318 q 856 790 954 672 l 319 153 q 558 72 419 72 z "},"Ù":{"ha":949,"x_min":110,"x_max":839,"o":"m 526 1082 l 418 1082 l 269 1268 l 386 1268 l 526 1082 m 839 997 l 839 342 q 740 77 839 175 q 475 -21 640 -21 q 209 77 308 -21 q 110 342 110 175 l 110 997 l 214 997 l 214 336 q 286 144 214 215 q 475 72 358 72 q 663 144 592 72 q 735 336 735 215 l 735 997 l 839 997 z "},"Ú":{"ha":949,"x_min":110,"x_max":839,"o":"m 531 1082 l 422 1082 l 563 1268 l 678 1268 l 531 1082 m 839 997 l 839 342 q 740 77 839 175 q 475 -21 640 -21 q 209 77 308 -21 q 110 342 110 175 l 110 997 l 214 997 l 214 336 q 286 144 214 215 q 475 72 358 72 q 663 144 592 72 q 735 336 735 215 l 735 997 l 839 997 z "},"Û":{"ha":949,"x_min":110,"x_max":839,"o":"m 349 1082 l 238 1082 l 421 1268 l 528 1268 l 713 1082 l 601 1082 l 475 1207 l 349 1082 m 839 997 l 839 342 q 740 77 839 175 q 475 -21 640 -21 q 209 77 308 -21 q 110 342 110 175 l 110 997 l 214 997 l 214 336 q 286 144 214 215 q 475 72 358 72 q 663 144 592 72 q 735 336 735 215 l 735 997 l 839 997 z "},"Ü":{"ha":949,"x_min":110,"x_max":839,"o":"m 678 1168 q 656 1115 678 1136 q 600 1093 633 1093 q 543 1115 565 1093 q 521 1168 521 1136 q 543 1224 521 1203 q 600 1244 565 1244 q 656 1223 633 1244 q 678 1168 678 1201 m 428 1168 q 406 1115 428 1136 q 350 1093 383 1093 q 294 1115 317 1093 q 272 1168 272 1136 q 294 1224 272 1203 q 350 1244 315 1244 q 406 1224 385 1244 q 428 1168 428 1203 m 839 997 l 839 342 q 740 77 839 175 q 475 -21 640 -21 q 209 77 308 -21 q 110 342 110 175 l 110 997 l 214 997 l 214 336 q 286 144 214 215 q 475 72 358 72 q 663 144 592 72 q 735 336 735 215 l 735 997 l 839 997 z "},"Ý":{"ha":860,"x_min":14,"x_max":846,"o":"m 489 1082 l 379 1082 l 519 1268 l 636 1268 l 489 1082 m 481 374 l 481 0 l 376 0 l 376 374 l 14 997 l 128 997 l 432 471 l 738 997 l 846 997 l 481 374 z "},"Þ":{"ha":828,"x_min":113,"x_max":779,"o":"m 433 186 l 217 186 l 217 0 l 113 0 l 113 997 l 217 997 l 217 817 l 433 817 q 685 734 590 817 q 779 503 779 651 q 685 270 779 354 q 433 186 590 186 m 432 729 l 217 729 l 217 275 l 432 275 q 610 335 544 275 q 675 503 675 394 q 610 669 675 610 q 432 729 544 729 z "},"ß":{"ha":833,"x_min":-3,"x_max":781,"o":"m 781 278 q 698 66 781 146 q 478 -14 615 -14 q 388 -6 419 -14 l 388 74 q 471 64 429 64 q 626 122 568 64 q 683 274 683 179 q 617 421 683 367 q 439 475 550 475 l 390 475 l 390 554 l 435 554 q 581 610 525 554 q 638 756 638 665 q 588 884 638 836 q 456 932 539 932 q 318 876 369 932 q 267 724 267 819 l 267 0 l 169 0 l 169 650 l -3 650 l -3 732 l 171 732 q 253 931 175 853 q 457 1010 332 1010 q 659 940 582 1010 q 736 760 736 869 q 691 615 736 679 q 569 524 646 551 q 726 435 671 500 q 781 278 781 371 z "},"à":{"ha":738,"x_min":60,"x_max":639,"o":"m 421 817 l 313 817 l 164 1003 l 281 1003 l 421 817 m 556 0 l 556 133 q 459 25 524 64 q 310 -14 394 -14 q 128 45 196 -14 q 60 203 60 104 q 396 421 60 421 q 546 413 438 421 l 546 474 q 499 617 546 565 q 369 668 453 668 q 227 616 279 668 q 174 475 175 564 l 85 475 q 165 672 88 597 q 368 746 243 746 q 567 675 496 746 q 639 476 639 604 l 639 0 l 556 0 m 153 206 q 200 98 153 139 q 324 57 247 57 q 485 119 425 57 q 546 283 546 181 l 546 349 q 400 356 468 356 q 153 206 153 356 z "},"á":{"ha":738,"x_min":60,"x_max":639,"o":"m 425 817 l 317 817 l 457 1003 l 572 1003 l 425 817 m 556 0 l 556 133 q 459 25 524 64 q 310 -14 394 -14 q 128 45 196 -14 q 60 203 60 104 q 396 421 60 421 q 546 413 438 421 l 546 474 q 499 617 546 565 q 369 668 453 668 q 227 616 279 668 q 174 475 175 564 l 85 475 q 165 672 88 597 q 368 746 243 746 q 567 675 496 746 q 639 476 639 604 l 639 0 l 556 0 m 153 206 q 200 98 153 139 q 324 57 247 57 q 485 119 425 57 q 546 283 546 181 l 546 349 q 400 356 468 356 q 153 206 153 356 z "},"â":{"ha":738,"x_min":60,"x_max":639,"o":"m 243 817 l 132 817 l 315 1003 l 422 1003 l 607 817 l 496 817 l 368 942 l 243 817 m 556 0 l 556 133 q 459 25 524 64 q 310 -14 394 -14 q 128 45 196 -14 q 60 203 60 104 q 396 421 60 421 q 546 413 438 421 l 546 474 q 499 617 546 565 q 369 668 453 668 q 227 616 279 668 q 174 475 175 564 l 85 475 q 165 672 88 597 q 368 746 243 746 q 567 675 496 746 q 639 476 639 604 l 639 0 l 556 0 m 153 206 q 200 98 153 139 q 324 57 247 57 q 485 119 425 57 q 546 283 546 181 l 546 349 q 400 356 468 356 q 153 206 153 356 z "},"ã":{"ha":738,"x_min":60,"x_max":639,"o":"m 207 815 l 142 815 q 167 948 133 899 q 264 997 201 997 q 339 972 303 997 q 405 922 375 947 q 460 897 435 897 q 524 1006 524 897 l 590 1006 q 563 874 597 924 q 467 824 529 824 q 392 849 428 824 q 326 899 356 874 q 271 924 296 924 q 207 815 206 924 m 556 0 l 556 133 q 459 25 524 64 q 310 -14 394 -14 q 128 45 196 -14 q 60 203 60 104 q 396 421 60 421 q 546 413 438 421 l 546 474 q 499 617 546 565 q 369 668 453 668 q 227 616 279 668 q 174 475 175 564 l 85 475 q 165 672 88 597 q 368 746 243 746 q 567 675 496 746 q 639 476 639 604 l 639 0 l 556 0 m 153 206 q 200 98 153 139 q 324 57 247 57 q 485 119 425 57 q 546 283 546 181 l 546 349 q 400 356 468 356 q 153 206 153 356 z "},"ä":{"ha":738,"x_min":60,"x_max":639,"o":"m 571 903 q 549 849 571 871 q 494 828 528 828 q 438 849 460 828 q 415 903 415 871 q 438 958 415 938 q 494 979 460 979 q 549 958 528 979 q 571 903 571 938 m 322 903 q 300 849 322 871 q 244 828 278 828 q 188 849 210 828 q 165 903 165 871 q 188 958 165 938 q 244 979 210 979 q 301 958 279 979 q 322 903 322 938 m 556 0 l 556 133 q 459 25 524 64 q 310 -14 394 -14 q 128 45 196 -14 q 60 203 60 104 q 396 421 60 421 q 546 413 438 421 l 546 474 q 499 617 546 565 q 369 668 453 668 q 227 616 279 668 q 174 475 175 564 l 85 475 q 165 672 88 597 q 368 746 243 746 q 567 675 496 746 q 639 476 639 604 l 639 0 l 556 0 m 153 206 q 200 98 153 139 q 324 57 247 57 q 485 119 425 57 q 546 283 546 181 l 546 349 q 400 356 468 356 q 153 206 153 356 z "},"å":{"ha":738,"x_min":60,"x_max":639,"o":"m 368 811 q 256 854 301 811 q 211 958 211 897 q 256 1063 211 1019 q 368 1106 301 1106 q 482 1063 436 1106 q 528 958 528 1019 q 482 854 528 897 q 368 811 436 811 m 368 868 q 435 892 410 868 q 461 958 461 915 q 435 1024 461 1001 q 368 1047 410 1047 q 303 1024 329 1047 q 276 958 276 1000 q 303 892 276 915 q 368 868 329 868 m 556 0 l 556 133 q 459 25 524 64 q 310 -14 394 -14 q 128 45 196 -14 q 60 203 60 104 q 396 421 60 421 q 546 413 438 421 l 546 474 q 499 617 546 565 q 369 668 453 668 q 227 616 279 668 q 174 475 175 564 l 85 475 q 165 672 88 597 q 368 746 243 746 q 567 675 496 746 q 639 476 639 604 l 639 0 l 556 0 m 153 206 q 200 98 153 139 q 324 57 247 57 q 485 119 425 57 q 546 283 546 181 l 546 349 q 400 356 468 356 q 153 206 153 356 z "},"æ":{"ha":1232,"x_min":60,"x_max":1178,"o":"m 60 200 q 144 358 60 303 q 386 414 229 414 q 546 413 518 414 l 546 465 q 499 615 546 563 q 365 668 451 668 q 228 616 281 668 q 176 475 176 564 l 88 475 q 167 670 90 594 q 364 746 244 746 q 518 705 456 746 q 606 586 581 664 q 715 703 646 660 q 865 746 783 746 q 1101 638 1015 746 q 1176 351 1186 529 l 638 351 q 701 140 640 217 q 868 64 761 64 q 1010 113 954 64 q 1082 247 1067 161 l 1178 247 q 1072 56 1154 126 q 871 -14 990 -14 q 699 39 772 -14 q 588 190 625 92 q 488 40 560 94 q 313 -14 415 -14 q 130 46 200 -14 q 60 200 60 106 m 861 671 q 706 601 768 671 q 639 418 644 531 l 1076 418 q 1015 605 1071 539 q 861 671 958 671 m 153 203 q 201 98 153 139 q 324 57 249 57 q 485 120 425 57 q 546 289 546 183 l 546 347 q 390 350 476 350 q 153 203 153 350 z "},"ç":{"ha":753,"x_min":51,"x_max":701,"o":"m 517 -164 q 476 -244 517 -214 q 375 -275 436 -275 q 271 -244 313 -275 q 221 -157 229 -214 l 289 -157 q 374 -221 301 -221 q 423 -203 404 -221 q 442 -161 442 -186 q 406 -99 442 -118 q 319 -86 371 -81 l 343 -14 q 132 106 213 1 q 51 367 51 210 q 143 640 51 533 q 379 746 235 746 q 593 666 507 746 q 701 449 679 586 l 603 449 q 527 605 586 549 q 379 661 468 661 q 213 579 276 661 q 150 367 150 497 q 213 151 150 233 q 379 69 276 69 q 528 126 469 69 q 603 283 586 182 l 701 283 q 603 71 683 150 q 400 -15 522 -8 l 388 -51 q 481 -85 444 -54 q 517 -164 517 -117 z "},"è":{"ha":771,"x_min":51,"x_max":718,"o":"m 439 817 l 331 817 l 182 1003 l 299 1003 l 439 817 m 393 -14 q 145 92 239 -14 q 51 372 51 199 q 147 640 51 533 q 388 746 242 746 q 635 633 543 746 q 715 343 728 519 l 149 343 q 220 138 156 213 q 392 63 285 63 q 544 111 483 63 q 622 247 604 160 l 718 247 q 606 56 693 125 q 393 -14 519 -14 m 386 671 q 223 600 288 671 q 149 410 158 529 l 614 410 q 547 602 607 533 q 386 671 488 671 z "},"é":{"ha":771,"x_min":51,"x_max":718,"o":"m 443 817 l 335 817 l 475 1003 l 592 1003 l 443 817 m 393 -14 q 145 92 239 -14 q 51 372 51 199 q 147 640 51 533 q 388 746 242 746 q 635 633 543 746 q 715 343 728 519 l 149 343 q 220 138 156 213 q 392 63 285 63 q 544 111 483 63 q 622 247 604 160 l 718 247 q 606 56 693 125 q 393 -14 519 -14 m 386 671 q 223 600 288 671 q 149 410 158 529 l 614 410 q 547 602 607 533 q 386 671 488 671 z "},"ê":{"ha":771,"x_min":51,"x_max":718,"o":"m 261 817 l 150 817 l 333 1003 l 440 1003 l 625 817 l 514 817 l 388 942 l 261 817 m 393 -14 q 145 92 239 -14 q 51 372 51 199 q 147 640 51 533 q 388 746 242 746 q 635 633 543 746 q 715 343 728 519 l 149 343 q 220 138 156 213 q 392 63 285 63 q 544 111 483 63 q 622 247 604 160 l 718 247 q 606 56 693 125 q 393 -14 519 -14 m 386 671 q 223 600 288 671 q 149 410 158 529 l 614 410 q 547 602 607 533 q 386 671 488 671 z "},"ë":{"ha":771,"x_min":51,"x_max":718,"o":"m 590 903 q 568 849 590 871 q 513 828 546 828 q 456 849 478 828 q 433 903 433 871 q 456 958 433 938 q 513 979 478 979 q 568 958 546 979 q 590 903 590 936 m 342 903 q 319 849 342 871 q 263 828 297 828 q 207 849 229 828 q 185 903 185 871 q 206 958 185 938 q 263 979 228 979 q 320 958 299 979 q 342 903 342 938 m 393 -14 q 145 92 239 -14 q 51 372 51 199 q 147 640 51 533 q 388 746 242 746 q 635 633 543 746 q 715 343 728 519 l 149 343 q 220 138 156 213 q 392 63 285 63 q 544 111 483 63 q 622 247 604 160 l 718 247 q 606 56 693 125 q 393 -14 519 -14 m 386 671 q 223 600 288 671 q 149 410 158 529 l 614 410 q 547 602 607 533 q 386 671 488 671 z "},"ì":{"ha":308,"x_min":-37,"x_max":206,"o":"m 206 817 l 96 817 l -37 1003 l 78 1003 l 206 817 m 203 0 l 106 0 l 106 732 l 203 732 l 203 0 z "},"í":{"ha":308,"x_min":100,"x_max":343,"o":"m 210 817 l 100 817 l 226 1003 l 343 1003 l 210 817 m 203 0 l 106 0 l 106 732 l 203 732 l 203 0 z "},"î":{"ha":308,"x_min":-69,"x_max":374,"o":"m 42 817 l -69 817 l 97 1003 l 208 1003 l 374 817 l 264 817 l 153 942 l 42 817 m 203 0 l 106 0 l 106 732 l 203 732 l 203 0 z "},"ï":{"ha":308,"x_min":-37,"x_max":343,"o":"m 343 903 q 322 849 343 871 q 269 828 301 828 q 215 849 236 828 q 194 903 194 871 q 215 958 194 938 q 269 979 236 979 q 322 958 301 979 q 343 903 343 938 m 114 903 q 92 849 114 871 q 38 828 71 828 q -16 849 6 828 q -37 903 -37 871 q -16 958 -37 936 q 38 979 6 979 q 92 958 71 979 q 114 903 114 938 m 203 0 l 106 0 l 106 732 l 203 732 l 203 0 z "},"ð":{"ha":794,"x_min":51,"x_max":743,"o":"m 51 363 q 142 631 51 526 q 379 736 232 736 q 514 694 454 736 l 390 850 l 215 779 l 215 849 l 347 906 l 276 997 l 385 997 l 435 933 l 615 1006 l 617 935 l 478 876 l 622 692 q 716 531 689 607 q 743 353 743 456 q 646 91 743 196 q 397 -14 549 -14 q 149 94 247 -14 q 51 363 51 201 m 150 364 q 218 150 150 229 q 397 71 286 71 q 575 147 507 71 q 643 353 643 224 q 576 576 643 493 q 397 658 508 658 q 217 580 285 658 q 150 364 150 501 z "},"ñ":{"ha":788,"x_min":106,"x_max":689,"o":"m 235 815 l 169 815 q 197 948 163 899 q 293 997 231 997 q 368 972 332 997 q 434 922 404 947 q 489 897 464 897 q 551 1006 551 897 l 618 1006 q 591 874 625 924 q 494 824 557 824 q 419 849 456 824 q 353 899 383 874 q 299 924 324 924 q 235 815 235 924 m 203 426 l 203 0 l 106 0 l 106 732 l 196 732 l 196 594 q 296 705 232 664 q 438 746 360 746 q 622 675 554 746 q 689 475 689 604 l 689 0 l 592 0 l 592 442 q 544 604 592 547 q 408 661 497 661 q 263 594 322 661 q 203 426 203 528 z "},"ò":{"ha":799,"x_min":51,"x_max":747,"o":"m 451 817 l 343 817 l 194 1003 l 311 1003 l 451 817 m 649 94 q 599 40 649 94 q 399 -14 550 -14 q 149 94 247 -14 q 51 367 51 201 q 149 638 51 531 q 399 744 247 744 q 649 638 550 744 q 747 367 747 532 q 649 94 747 201 m 399 71 q 578 151 508 71 q 649 367 649 232 q 578 579 649 499 q 399 660 508 660 q 220 579 290 660 q 150 367 150 499 q 220 151 150 232 q 399 71 290 71 z "},"ó":{"ha":799,"x_min":51,"x_max":747,"o":"m 456 817 l 347 817 l 488 1003 l 603 1003 l 456 817 m 649 94 q 599 40 649 94 q 399 -14 550 -14 q 149 94 247 -14 q 51 367 51 201 q 149 638 51 531 q 399 744 247 744 q 649 638 550 744 q 747 367 747 532 q 649 94 747 201 m 399 71 q 578 151 508 71 q 649 367 649 232 q 578 579 649 499 q 399 660 508 660 q 220 579 290 660 q 150 367 150 499 q 220 151 150 232 q 399 71 290 71 z "},"ô":{"ha":799,"x_min":51,"x_max":747,"o":"m 274 817 l 163 817 l 346 1003 l 453 1003 l 638 817 l 526 817 l 399 942 l 274 817 m 649 94 q 599 40 649 94 q 399 -14 550 -14 q 149 94 247 -14 q 51 367 51 201 q 149 638 51 531 q 399 744 247 744 q 649 638 550 744 q 747 367 747 532 q 649 94 747 201 m 399 71 q 578 151 508 71 q 649 367 649 232 q 578 579 649 499 q 399 660 508 660 q 220 579 290 660 q 150 367 150 499 q 220 151 150 232 q 399 71 290 71 z "},"õ":{"ha":799,"x_min":51,"x_max":747,"o":"m 238 815 l 172 815 q 198 948 164 899 q 294 997 232 997 q 369 972 333 997 q 435 922 406 947 q 490 897 465 897 q 554 1006 554 897 l 621 1006 q 594 874 628 924 q 497 824 560 824 q 422 849 458 824 q 356 899 386 874 q 301 924 326 924 q 238 815 238 924 m 649 94 q 599 40 649 94 q 399 -14 550 -14 q 149 94 247 -14 q 51 367 51 201 q 149 638 51 531 q 399 744 247 744 q 649 638 550 744 q 747 367 747 532 q 649 94 747 201 m 399 71 q 578 151 508 71 q 649 367 649 232 q 578 579 649 499 q 399 660 508 660 q 220 579 290 660 q 150 367 150 499 q 220 151 150 232 q 399 71 290 71 z "},"ö":{"ha":799,"x_min":51,"x_max":747,"o":"m 601 903 q 580 849 601 871 q 525 828 558 828 q 468 849 490 828 q 446 903 446 871 q 468 958 446 938 q 525 979 490 979 q 580 958 558 979 q 601 903 601 938 m 353 903 q 331 849 353 871 q 275 828 308 828 q 218 849 240 828 q 196 903 196 871 q 218 958 196 938 q 275 979 240 979 q 331 958 310 979 q 353 903 353 938 m 649 94 q 599 40 649 94 q 399 -14 550 -14 q 149 94 247 -14 q 51 367 51 201 q 149 638 51 531 q 399 744 247 744 q 649 638 550 744 q 747 367 747 532 q 649 94 747 201 m 399 71 q 578 151 508 71 q 649 367 649 232 q 578 579 649 499 q 399 660 508 660 q 220 579 290 660 q 150 367 150 499 q 220 151 150 232 q 399 71 290 71 z "},"÷":{"ha":917,"x_min":111,"x_max":806,"o":"m 546 715 q 522 653 546 678 q 458 628 497 628 q 395 653 419 628 q 371 715 371 678 q 395 779 371 754 q 458 804 419 804 q 522 779 497 804 q 546 715 546 754 m 806 425 l 111 425 l 111 507 l 806 507 l 806 425 m 522 285 q 534 272 522 285 q 546 221 546 260 q 522 158 546 182 q 458 133 497 133 q 395 158 419 133 q 371 221 371 182 q 395 285 371 260 q 458 310 419 310 q 522 285 497 310 z "},"ø":{"ha":799,"x_min":51,"x_max":747,"o":"m 149 0 l 65 0 l 144 99 q 51 367 51 207 q 149 638 51 531 q 399 744 247 744 q 606 676 515 744 l 650 732 l 733 732 l 654 632 q 747 367 747 525 q 649 94 747 201 q 399 -14 550 -14 q 192 54 282 -14 l 149 0 m 150 367 q 204 174 150 250 l 550 607 q 399 660 486 660 q 220 579 290 660 q 150 367 150 499 m 399 71 q 578 151 508 71 q 649 367 649 232 q 594 558 649 482 l 247 124 q 399 71 314 71 z "},"ù":{"ha":775,"x_min":99,"x_max":669,"o":"m 440 817 l 332 817 l 183 1003 l 300 1003 l 440 817 m 574 296 l 574 732 l 669 732 l 669 0 l 579 0 l 579 132 q 488 26 550 67 q 346 -14 425 -14 q 165 53 231 -14 q 99 256 99 121 l 99 732 l 196 732 l 196 276 q 372 71 196 71 q 517 135 460 71 q 574 296 574 199 z "},"ú":{"ha":775,"x_min":99,"x_max":669,"o":"m 444 817 l 336 817 l 475 1003 l 592 1003 l 444 817 m 574 296 l 574 732 l 669 732 l 669 0 l 579 0 l 579 132 q 488 26 550 67 q 346 -14 425 -14 q 165 53 231 -14 q 99 256 99 121 l 99 732 l 196 732 l 196 276 q 372 71 196 71 q 517 135 460 71 q 574 296 574 199 z "},"û":{"ha":775,"x_min":99,"x_max":669,"o":"m 263 817 l 151 817 l 335 1003 l 442 1003 l 626 817 l 515 817 l 388 942 l 263 817 m 574 296 l 574 732 l 669 732 l 669 0 l 579 0 l 579 132 q 488 26 550 67 q 346 -14 425 -14 q 165 53 231 -14 q 99 256 99 121 l 99 732 l 196 732 l 196 276 q 372 71 196 71 q 517 135 460 71 q 574 296 574 199 z "},"ü":{"ha":775,"x_min":99,"x_max":669,"o":"m 590 903 q 568 849 590 871 q 513 828 546 828 q 456 849 478 828 q 433 903 433 871 q 456 958 433 938 q 513 979 478 979 q 569 958 547 979 q 590 903 590 938 m 342 903 q 319 849 342 871 q 264 828 297 828 q 207 849 229 828 q 185 903 185 871 q 207 958 185 938 q 264 979 229 979 q 320 958 299 979 q 342 903 342 938 m 574 296 l 574 732 l 669 732 l 669 0 l 579 0 l 579 132 q 488 26 550 67 q 346 -14 425 -14 q 165 53 231 -14 q 99 256 99 121 l 99 732 l 196 732 l 196 276 q 372 71 196 71 q 517 135 460 71 q 574 296 574 199 z "},"ý":{"ha":676,"x_min":7,"x_max":669,"o":"m 394 817 l 286 817 l 426 1003 l 542 1003 l 394 817 m 669 732 l 294 -268 l 190 -268 l 297 10 l 7 732 l 111 732 l 347 126 l 571 732 l 669 732 z "},"þ":{"ha":828,"x_min":106,"x_max":776,"o":"m 776 367 q 689 91 776 196 q 456 -14 601 -14 q 307 29 374 -14 q 203 150 240 72 l 203 -268 l 106 -268 l 106 997 l 203 997 l 203 579 q 306 701 239 657 q 456 746 374 746 q 688 641 600 746 q 776 367 776 536 m 678 367 q 613 583 678 504 q 439 661 547 661 q 268 582 335 661 q 201 367 201 503 q 267 151 201 232 q 439 71 333 71 q 613 149 547 71 q 678 367 678 228 z "},"ÿ":{"ha":676,"x_min":7,"x_max":669,"o":"m 542 903 q 519 849 542 871 q 464 828 497 828 q 407 849 429 828 q 385 903 385 871 q 407 958 385 938 q 464 979 429 979 q 519 958 497 979 q 542 903 542 936 m 292 903 q 269 849 292 871 q 214 828 247 828 q 158 849 181 828 q 136 903 136 871 q 158 958 136 938 q 214 979 179 979 q 270 958 249 979 q 292 903 292 938 m 669 732 l 294 -268 l 190 -268 l 297 10 l 7 732 l 111 732 l 347 126 l 571 732 l 669 732 z "},"Ā":{"ha":963,"x_min":38,"x_max":925,"o":"m 676 1101 l 285 1101 l 285 1171 l 676 1171 l 676 1101 m 815 0 l 711 276 l 246 276 l 140 0 l 38 0 l 425 997 l 539 997 l 925 0 l 815 0 m 479 886 l 278 361 l 678 361 l 479 886 z "},"ā":{"ha":738,"x_min":60,"x_max":639,"o":"m 564 836 l 172 836 l 172 906 l 564 906 l 564 836 m 556 0 l 556 133 q 459 25 524 64 q 310 -14 394 -14 q 128 45 196 -14 q 60 203 60 104 q 396 421 60 421 q 546 413 438 421 l 546 474 q 499 617 546 565 q 369 668 453 668 q 227 616 279 668 q 174 475 175 564 l 85 475 q 165 672 88 597 q 368 746 243 746 q 567 675 496 746 q 639 476 639 604 l 639 0 l 556 0 m 153 206 q 200 98 153 139 q 324 57 247 57 q 485 119 425 57 q 546 283 546 181 l 546 349 q 400 356 468 356 q 153 206 153 356 z "},"Ă":{"ha":963,"x_min":38,"x_max":925,"o":"m 606 1268 l 683 1268 q 628 1131 683 1185 q 481 1078 572 1078 q 334 1131 389 1078 q 279 1268 279 1185 l 356 1268 q 390 1178 356 1213 q 481 1144 424 1144 q 572 1178 539 1144 q 606 1268 606 1213 m 815 0 l 711 276 l 246 276 l 140 0 l 38 0 l 425 997 l 539 997 l 925 0 l 815 0 m 479 886 l 278 361 l 678 361 l 479 886 z "},"ă":{"ha":738,"x_min":60,"x_max":639,"o":"m 494 1003 l 571 1003 q 515 866 571 919 q 368 813 460 813 q 222 866 278 813 q 167 1003 167 919 l 243 1003 q 277 914 243 949 q 368 879 311 879 q 460 913 426 879 q 494 1003 494 947 m 556 0 l 556 133 q 459 25 524 64 q 310 -14 394 -14 q 128 45 196 -14 q 60 203 60 104 q 396 421 60 421 q 546 413 438 421 l 546 474 q 499 617 546 565 q 369 668 453 668 q 227 616 279 668 q 174 475 175 564 l 85 475 q 165 672 88 597 q 368 746 243 746 q 567 675 496 746 q 639 476 639 604 l 639 0 l 556 0 m 153 206 q 200 98 153 139 q 324 57 247 57 q 485 119 425 57 q 546 283 546 181 l 546 349 q 400 356 468 356 q 153 206 153 356 z "},"Ą":{"ha":963,"x_min":38,"x_max":925,"o":"m 906 -192 l 906 -261 q 829 -275 868 -275 q 732 -241 769 -275 q 694 -150 694 -207 q 807 21 694 -65 l 711 276 l 246 276 l 140 0 l 38 0 l 425 997 l 539 997 l 925 0 l 854 0 q 775 -128 775 -56 q 795 -183 775 -162 q 850 -204 815 -204 q 906 -192 876 -204 m 479 886 l 278 361 l 678 361 l 479 886 z "},"ą":{"ha":738,"x_min":60,"x_max":646,"o":"m 646 -192 l 646 -261 q 569 -275 608 -275 q 472 -241 510 -275 q 435 -150 435 -207 q 556 26 435 -62 l 556 133 q 459 25 524 64 q 310 -14 394 -14 q 128 45 196 -14 q 60 203 60 104 q 396 421 60 421 q 546 413 438 421 l 546 474 q 499 617 546 565 q 369 668 453 668 q 227 616 279 668 q 174 475 175 564 l 85 475 q 165 672 88 597 q 368 746 243 746 q 567 675 496 746 q 639 476 639 604 l 639 0 l 594 0 q 515 -128 515 -56 q 535 -183 515 -162 q 590 -204 556 -204 q 646 -192 617 -204 m 153 206 q 200 98 153 139 q 324 57 247 57 q 485 119 425 57 q 546 283 546 181 l 546 349 q 400 356 468 356 q 153 206 153 356 z "},"Ć":{"ha":1071,"x_min":56,"x_max":1015,"o":"m 603 1082 l 494 1082 l 635 1268 l 750 1268 l 603 1082 m 543 -21 q 195 129 335 -21 q 56 500 56 279 q 195 869 56 721 q 543 1018 335 1018 q 854 908 722 1018 q 1015 621 986 799 l 906 621 q 781 840 882 754 q 543 925 681 925 q 270 804 378 925 q 163 500 163 683 q 270 193 163 314 q 543 72 378 72 q 781 158 681 72 q 906 378 882 243 l 1015 378 q 854 90 986 200 q 543 -21 722 -21 z "},"ć":{"ha":753,"x_min":51,"x_max":701,"o":"m 439 817 l 331 817 l 469 1003 l 586 1003 l 439 817 m 379 -15 q 143 92 235 -15 q 51 367 51 199 q 143 640 51 533 q 379 746 235 746 q 593 666 507 746 q 701 449 679 586 l 603 449 q 527 605 586 549 q 379 661 468 661 q 213 579 276 661 q 150 367 150 497 q 213 151 150 233 q 379 69 276 69 q 528 126 469 69 q 603 283 586 182 l 701 283 q 595 65 682 144 q 379 -15 508 -15 z "},"Č":{"ha":1071,"x_min":56,"x_max":1015,"o":"m 600 1082 l 493 1082 l 310 1268 l 421 1268 l 546 1143 l 674 1268 l 785 1268 l 600 1082 m 543 -21 q 195 129 335 -21 q 56 500 56 279 q 195 869 56 721 q 543 1018 335 1018 q 854 908 722 1018 q 1015 621 986 799 l 906 621 q 781 840 882 754 q 543 925 681 925 q 270 804 378 925 q 163 500 163 683 q 270 193 163 314 q 543 72 378 72 q 781 158 681 72 q 906 378 882 243 l 1015 378 q 854 90 986 200 q 543 -21 722 -21 z "},"č":{"ha":753,"x_min":51,"x_max":701,"o":"m 436 817 l 329 817 l 146 1003 l 257 1003 l 382 878 l 510 1003 l 621 1003 l 436 817 m 379 -15 q 143 92 235 -15 q 51 367 51 199 q 143 640 51 533 q 379 746 235 746 q 593 666 507 746 q 701 449 679 586 l 603 449 q 527 605 586 549 q 379 661 468 661 q 213 579 276 661 q 150 367 150 497 q 213 151 150 233 q 379 69 276 69 q 528 126 469 69 q 603 283 586 182 l 701 283 q 595 65 682 144 q 379 -15 508 -15 z "},"Ď":{"ha":947,"x_min":113,"x_max":892,"o":"m 501 1082 l 393 1082 l 210 1268 l 321 1268 l 447 1143 l 574 1268 l 685 1268 l 501 1082 m 396 0 l 113 0 l 113 997 l 396 997 q 761 862 631 997 q 892 503 892 726 q 758 141 892 282 q 396 0 625 0 m 217 907 l 217 90 l 393 90 q 683 202 579 90 q 786 503 786 314 q 684 799 786 690 q 393 907 582 907 l 217 907 z "},"ď":{"ha":828,"x_min":51,"x_max":883,"o":"m 51 367 q 139 641 51 536 q 374 746 226 746 q 522 701 456 746 q 625 579 589 657 l 625 997 l 722 997 l 722 0 l 632 0 l 632 154 q 526 30 593 74 q 374 -14 458 -14 q 139 91 226 -14 q 51 367 51 196 m 861 793 l 796 793 l 796 997 l 883 997 l 861 793 m 215 583 q 182 543 215 583 q 150 367 150 504 q 215 150 150 229 q 388 71 279 71 q 560 152 494 71 q 626 369 626 233 q 560 583 626 506 q 388 661 494 661 q 215 583 279 661 z "},"Đ":{"ha":1006,"x_min":8,"x_max":950,"o":"m 454 0 l 171 0 l 171 472 l 8 472 l 8 557 l 171 557 l 171 997 l 454 997 q 819 862 689 997 q 950 503 950 726 q 817 141 950 282 q 454 0 683 0 m 492 472 l 275 472 l 275 90 l 451 90 q 741 202 638 90 q 844 503 844 314 q 742 799 844 690 q 451 907 640 907 l 275 907 l 275 557 l 492 557 l 492 472 z "},"đ":{"ha":828,"x_min":51,"x_max":854,"o":"m 51 367 q 139 641 51 536 q 374 746 226 746 q 522 701 456 746 q 625 579 589 657 l 625 836 l 447 836 l 447 904 l 625 904 l 625 997 l 722 997 l 722 904 l 854 904 l 854 836 l 722 836 l 722 0 l 632 0 l 632 154 q 526 30 593 74 q 374 -14 458 -14 q 139 91 226 -14 q 51 367 51 196 m 215 583 q 182 543 215 583 q 150 367 150 504 q 215 150 150 229 q 388 71 279 71 q 560 152 494 71 q 626 369 626 233 q 560 583 626 506 q 388 661 494 661 q 215 583 279 661 z "},"Ē":{"ha":792,"x_min":113,"x_max":711,"o":"m 610 1101 l 217 1101 l 217 1171 l 610 1171 l 610 1101 m 711 90 l 711 0 l 113 0 l 113 997 l 701 997 l 701 907 l 217 907 l 217 560 l 660 560 l 660 469 l 217 469 l 217 90 l 711 90 z "},"ē":{"ha":771,"x_min":51,"x_max":718,"o":"m 583 836 l 190 836 l 190 906 l 583 906 l 583 836 m 393 -14 q 145 92 239 -14 q 51 372 51 199 q 147 640 51 533 q 388 746 242 746 q 635 633 543 746 q 715 343 728 519 l 149 343 q 220 138 156 213 q 392 63 285 63 q 544 111 483 63 q 622 247 604 160 l 718 247 q 606 56 693 125 q 393 -14 519 -14 m 386 671 q 223 600 288 671 q 149 410 158 529 l 614 410 q 547 602 607 533 q 386 671 488 671 z "},"Ė":{"ha":792,"x_min":113,"x_max":711,"o":"m 471 1219 q 482 1209 471 1219 q 493 1167 493 1199 q 471 1114 493 1135 q 414 1093 449 1093 q 358 1114 379 1093 q 336 1167 336 1135 q 358 1219 336 1199 q 414 1239 379 1239 q 471 1219 449 1239 m 711 90 l 711 0 l 113 0 l 113 997 l 701 997 l 701 907 l 217 907 l 217 560 l 660 560 l 660 469 l 217 469 l 217 90 l 711 90 z "},"ė":{"ha":771,"x_min":51,"x_max":718,"o":"m 444 953 q 456 943 444 953 q 467 901 467 933 q 444 849 467 869 q 388 828 422 828 q 331 849 353 828 q 308 901 308 869 q 331 953 308 933 q 388 974 353 974 q 444 953 422 974 m 393 -14 q 145 92 239 -14 q 51 372 51 199 q 147 640 51 533 q 388 746 242 746 q 635 633 543 746 q 715 343 728 519 l 149 343 q 220 138 156 213 q 392 63 285 63 q 544 111 483 63 q 622 247 604 160 l 718 247 q 606 56 693 125 q 393 -14 519 -14 m 386 671 q 223 600 288 671 q 149 410 158 529 l 614 410 q 547 602 607 533 q 386 671 488 671 z "},"Ę":{"ha":792,"x_min":113,"x_max":711,"o":"m 660 -192 l 660 -261 q 583 -275 622 -275 q 486 -241 524 -275 q 449 -150 449 -207 q 536 0 449 -74 l 113 0 l 113 997 l 701 997 l 701 907 l 217 907 l 217 560 l 660 560 l 660 469 l 217 469 l 217 90 l 711 90 l 711 0 l 608 0 q 529 -128 529 -56 q 549 -183 529 -162 q 604 -204 569 -204 q 660 -192 631 -204 z "},"ę":{"ha":771,"x_min":51,"x_max":718,"o":"m 393 -14 q 145 92 239 -14 q 51 372 51 199 q 147 640 51 533 q 388 746 242 746 q 635 633 543 746 q 715 343 728 519 l 149 343 q 220 138 156 213 q 392 63 285 63 q 544 111 483 63 q 622 247 604 160 l 718 247 q 526 10 682 71 q 432 -128 432 -49 q 452 -183 432 -162 q 506 -204 472 -204 q 563 -192 531 -204 l 563 -261 q 485 -275 522 -275 q 388 -241 426 -275 q 350 -150 350 -207 q 422 -12 350 -81 q 393 -14 413 -14 m 386 671 q 223 600 288 671 q 149 410 158 529 l 614 410 q 547 602 607 533 q 386 671 488 671 z "},"Ě":{"ha":792,"x_min":113,"x_max":711,"o":"m 468 1082 l 360 1082 l 176 1268 l 288 1268 l 414 1143 l 540 1268 l 651 1268 l 468 1082 m 711 90 l 711 0 l 113 0 l 113 997 l 701 997 l 701 907 l 217 907 l 217 560 l 660 560 l 660 469 l 217 469 l 217 90 l 711 90 z "},"ě":{"ha":771,"x_min":51,"x_max":718,"o":"m 440 817 l 333 817 l 150 1003 l 261 1003 l 388 878 l 514 1003 l 625 1003 l 440 817 m 393 -14 q 145 92 239 -14 q 51 372 51 199 q 147 640 51 533 q 388 746 242 746 q 635 633 543 746 q 715 343 728 519 l 149 343 q 220 138 156 213 q 392 63 285 63 q 544 111 483 63 q 622 247 604 160 l 718 247 q 606 56 693 125 q 393 -14 519 -14 m 386 671 q 223 600 288 671 q 149 410 158 529 l 614 410 q 547 602 607 533 q 386 671 488 671 z "},"Ğ":{"ha":1107,"x_min":56,"x_max":1051,"o":"m 676 1268 l 754 1268 q 699 1131 754 1185 q 551 1078 643 1078 q 405 1131 460 1078 q 350 1268 350 1185 l 426 1268 q 460 1178 426 1213 q 551 1144 494 1144 q 643 1178 610 1144 q 676 1268 676 1213 m 560 -21 q 200 127 344 -21 q 56 499 56 275 q 197 869 56 721 q 553 1018 338 1018 q 866 916 739 1018 q 1039 656 993 814 l 921 656 q 790 850 886 775 q 550 925 694 925 q 270 806 378 925 q 163 497 163 686 q 274 190 163 311 q 563 69 385 69 q 824 162 724 69 q 943 414 924 254 l 551 414 l 551 499 l 1051 499 q 915 121 1050 263 q 560 -21 781 -21 z "},"ğ":{"ha":803,"x_min":51,"x_max":697,"o":"m 507 1003 l 585 1003 q 529 866 585 919 q 382 813 474 813 q 235 866 290 813 q 181 1003 181 919 l 257 1003 q 291 913 257 947 q 382 879 325 879 q 474 913 440 879 q 507 1003 507 947 m 382 -283 q 159 -214 242 -283 q 71 -22 76 -144 l 164 -22 q 226 -158 169 -111 q 381 -206 282 -206 q 545 -149 489 -206 q 601 15 601 -93 l 601 168 q 505 49 568 92 q 360 6 442 6 q 136 108 221 6 q 51 376 51 210 q 135 644 51 543 q 358 746 219 746 q 506 701 440 746 q 607 576 571 657 l 607 732 l 697 732 l 697 17 q 615 -204 697 -125 q 382 -283 532 -283 m 149 376 q 208 165 149 242 q 374 89 268 89 q 540 166 476 89 q 603 369 603 243 q 540 583 603 504 q 374 663 478 663 q 209 586 269 663 q 149 376 149 510 z "},"Ģ":{"ha":1107,"x_min":56,"x_max":1051,"o":"m 560 -21 q 200 127 344 -21 q 56 499 56 275 q 197 869 56 721 q 553 1018 338 1018 q 866 916 739 1018 q 1039 656 993 814 l 921 656 q 790 850 886 775 q 550 925 694 925 q 270 806 378 925 q 163 497 163 686 q 274 190 163 311 q 563 69 385 69 q 824 162 724 69 q 943 414 924 254 l 551 414 l 551 499 l 1051 499 q 915 121 1050 263 q 560 -21 781 -21 m 629 -161 q 582 -257 629 -217 q 461 -292 535 -297 l 461 -246 q 535 -228 507 -246 q 567 -182 564 -211 q 506 -180 532 -194 q 479 -135 479 -165 q 498 -93 479 -108 q 547 -78 517 -78 q 607 -101 585 -78 q 629 -161 629 -125 z "},"ģ":{"ha":803,"x_min":51,"x_max":697,"o":"m 304 893 q 351 988 304 949 q 472 1024 399 1028 l 472 978 q 398 960 426 978 q 367 914 369 943 q 396 919 386 919 q 438 904 421 919 q 456 867 456 889 q 436 825 456 840 q 386 810 417 810 q 326 833 349 810 q 304 893 304 857 m 382 -283 q 159 -214 242 -283 q 71 -22 76 -144 l 164 -22 q 226 -158 169 -111 q 381 -206 282 -206 q 545 -149 489 -206 q 601 15 601 -93 l 601 168 q 505 49 568 92 q 360 6 442 6 q 136 108 221 6 q 51 376 51 210 q 135 644 51 543 q 358 746 219 746 q 506 701 440 746 q 607 576 571 657 l 607 732 l 697 732 l 697 17 q 615 -204 697 -125 q 382 -283 532 -283 m 149 376 q 208 165 149 242 q 374 89 268 89 q 540 166 476 89 q 603 369 603 243 q 540 583 603 504 q 374 663 478 663 q 209 586 269 663 q 149 376 149 510 z "},"Ī":{"ha":329,"x_min":-32,"x_max":361,"o":"m 361 1101 l -32 1101 l -32 1171 l 361 1171 l 361 1101 m 217 0 l 113 0 l 113 997 l 217 997 l 217 0 z "},"ī":{"ha":308,"x_min":-44,"x_max":349,"o":"m 349 836 l -44 836 l -44 906 l 349 906 l 349 836 m 203 0 l 106 0 l 106 732 l 203 732 l 203 0 z "},"Į":{"ha":329,"x_min":-8,"x_max":217,"o":"m 217 0 l 153 0 q 72 -128 72 -56 q 92 -183 72 -162 q 147 -204 113 -204 q 204 -192 172 -204 l 204 -261 q 126 -275 164 -275 q 30 -241 68 -275 q -8 -150 -8 -207 q 113 26 -8 -62 l 113 997 l 217 997 l 217 0 z "},"į":{"ha":308,"x_min":-15,"x_max":232,"o":"m 210 953 q 221 943 210 953 q 232 901 232 933 q 210 849 232 869 q 153 828 188 828 q 97 849 118 828 q 75 901 75 869 q 97 953 75 933 q 153 974 118 974 q 210 953 188 974 m 203 0 l 144 0 q 65 -128 65 -56 q 85 -183 65 -162 q 140 -204 106 -204 q 196 -192 167 -204 l 196 -261 q 119 -275 158 -275 q 23 -241 61 -275 q -15 -150 -15 -207 q 106 26 -15 -62 l 106 732 l 203 732 l 203 0 z "},"İ":{"ha":329,"x_min":86,"x_max":244,"o":"m 222 1219 q 233 1209 222 1219 q 244 1167 244 1199 q 222 1114 244 1135 q 165 1093 200 1093 q 108 1114 131 1093 q 86 1167 86 1135 q 108 1219 86 1199 q 165 1239 131 1239 q 222 1219 200 1239 m 217 0 l 113 0 l 113 997 l 217 997 l 217 0 z "},"ı":{"ha":308,"x_min":106,"x_max":203,"o":"m 203 0 l 106 0 l 106 732 l 203 732 l 203 0 z "},"Ķ":{"ha":856,"x_min":113,"x_max":824,"o":"m 217 0 l 113 0 l 113 997 l 217 997 l 217 517 l 689 997 l 810 997 l 324 500 l 824 0 l 689 0 l 217 468 l 217 0 m 528 -161 q 481 -257 528 -217 q 360 -292 433 -297 l 360 -246 q 434 -228 406 -246 q 465 -182 463 -211 q 403 -180 431 -194 q 376 -135 376 -165 q 396 -93 376 -108 q 446 -78 415 -78 q 506 -101 483 -78 q 528 -161 528 -125 z "},"ķ":{"ha":703,"x_min":106,"x_max":701,"o":"m 203 0 l 106 0 l 106 997 l 203 997 l 203 392 l 556 732 l 671 732 l 301 374 l 701 0 l 575 0 l 203 351 l 203 0 m 461 -161 q 414 -257 461 -217 q 293 -292 367 -297 l 293 -246 q 367 -228 339 -246 q 399 -182 396 -211 q 338 -180 364 -194 q 311 -135 311 -165 q 330 -93 311 -108 q 379 -78 349 -78 q 439 -101 417 -78 q 461 -161 461 -125 z "},"Ĺ":{"ha":724,"x_min":111,"x_max":682,"o":"m 219 1082 l 111 1082 l 250 1268 l 367 1268 l 219 1082 m 682 0 l 113 0 l 113 997 l 217 997 l 217 93 l 682 93 l 682 0 z "},"ĺ":{"ha":308,"x_min":103,"x_max":360,"o":"m 211 1082 l 103 1082 l 243 1268 l 360 1268 l 211 1082 m 203 0 l 106 0 l 106 997 l 203 997 l 203 0 z "},"Ļ":{"ha":724,"x_min":113,"x_max":682,"o":"m 682 0 l 113 0 l 113 997 l 217 997 l 217 93 l 682 93 l 682 0 m 488 -161 q 440 -257 488 -217 q 319 -292 393 -297 l 319 -246 q 394 -228 365 -246 q 425 -182 422 -211 q 364 -180 390 -194 q 338 -135 338 -165 q 356 -93 338 -108 q 406 -78 375 -78 q 465 -101 443 -78 q 488 -161 488 -125 z "},"ļ":{"ha":308,"x_min":65,"x_max":233,"o":"m 203 0 l 106 0 l 106 997 l 203 997 l 203 0 m 233 -161 q 186 -257 233 -217 q 65 -292 139 -297 l 65 -246 q 140 -228 111 -246 q 171 -182 168 -211 q 109 -180 136 -194 q 82 -135 82 -165 q 101 -93 82 -108 q 151 -78 121 -78 q 211 -101 189 -78 q 233 -161 233 -125 z "},"Ľ":{"ha":724,"x_min":113,"x_max":682,"o":"m 682 0 l 113 0 l 113 997 l 217 997 l 217 93 l 682 93 l 682 0 m 428 793 l 363 793 l 363 997 l 450 997 l 428 793 z "},"ľ":{"ha":308,"x_min":106,"x_max":365,"o":"m 203 0 l 106 0 l 106 997 l 203 997 l 203 0 m 342 793 l 276 793 l 276 997 l 365 997 l 342 793 z "},"Ł":{"ha":724,"x_min":-32,"x_max":682,"o":"m 682 0 l 113 0 l 113 439 l -32 399 l -32 485 l 113 524 l 113 997 l 217 997 l 217 553 l 501 631 l 501 546 l 217 467 l 217 93 l 682 93 l 682 0 z "},"ł":{"ha":308,"x_min":-56,"x_max":368,"o":"m 203 0 l 106 0 l 106 447 l -56 404 l -56 485 l 106 528 l 106 997 l 203 997 l 203 554 l 368 599 l 368 517 l 203 472 l 203 0 z "},"Ń":{"ha":1015,"x_min":113,"x_max":903,"o":"m 564 1082 l 456 1082 l 596 1268 l 711 1268 l 564 1082 m 792 0 l 210 850 l 210 0 l 113 0 l 113 997 l 228 997 l 804 158 l 804 997 l 903 997 l 903 0 l 792 0 z "},"ń":{"ha":788,"x_min":106,"x_max":689,"o":"m 453 817 l 344 817 l 485 1003 l 601 1003 l 453 817 m 203 426 l 203 0 l 106 0 l 106 732 l 196 732 l 196 594 q 296 705 232 664 q 438 746 360 746 q 622 675 554 746 q 689 475 689 604 l 689 0 l 592 0 l 592 442 q 544 604 592 547 q 408 661 497 661 q 263 594 322 661 q 203 426 203 528 z "},"Ņ":{"ha":1015,"x_min":113,"x_max":903,"o":"m 792 0 l 210 850 l 210 0 l 113 0 l 113 997 l 228 997 l 804 158 l 804 997 l 903 997 l 903 0 l 792 0 m 586 -161 q 539 -257 586 -217 q 418 -292 492 -297 l 418 -246 q 492 -228 464 -246 q 524 -182 521 -211 q 462 -180 489 -194 q 435 -135 435 -165 q 454 -93 435 -108 q 504 -78 474 -78 q 564 -101 542 -78 q 586 -161 586 -125 z "},"ņ":{"ha":788,"x_min":106,"x_max":689,"o":"m 203 426 l 203 0 l 106 0 l 106 732 l 196 732 l 196 594 q 296 705 232 664 q 438 746 360 746 q 622 675 554 746 q 689 475 689 604 l 689 0 l 592 0 l 592 442 q 544 604 592 547 q 408 661 497 661 q 263 594 322 661 q 203 426 203 528 m 475 -161 q 428 -257 475 -217 q 307 -292 381 -297 l 307 -246 q 381 -228 353 -246 q 413 -182 410 -211 q 351 -180 378 -194 q 324 -135 324 -165 q 343 -93 324 -108 q 393 -78 363 -78 q 453 -101 431 -78 q 475 -161 475 -125 z "},"Ň":{"ha":1015,"x_min":113,"x_max":903,"o":"m 561 1082 l 454 1082 l 271 1268 l 382 1268 l 508 1143 l 635 1268 l 746 1268 l 561 1082 m 792 0 l 210 850 l 210 0 l 113 0 l 113 997 l 228 997 l 804 158 l 804 997 l 903 997 l 903 0 l 792 0 z "},"ň":{"ha":788,"x_min":106,"x_max":689,"o":"m 450 817 l 343 817 l 160 1003 l 271 1003 l 397 878 l 524 1003 l 635 1003 l 450 817 m 203 426 l 203 0 l 106 0 l 106 732 l 196 732 l 196 594 q 296 705 232 664 q 438 746 360 746 q 622 675 554 746 q 689 475 689 604 l 689 0 l 592 0 l 592 442 q 544 604 592 547 q 408 661 497 661 q 263 594 322 661 q 203 426 203 528 z "},"Ō":{"ha":1117,"x_min":56,"x_max":1063,"o":"m 754 1101 l 363 1101 l 363 1171 l 754 1171 l 754 1101 m 918 130 q 846 55 918 130 q 558 -21 774 -21 q 199 130 343 -21 q 56 500 56 281 q 199 869 56 719 q 558 1018 343 1018 q 918 869 774 1018 q 1063 500 1063 719 q 918 130 1063 281 m 558 72 q 844 195 733 72 q 954 500 954 318 q 844 803 954 682 q 558 925 733 925 q 274 803 385 925 q 163 500 163 682 q 274 195 163 318 q 558 72 385 72 z "},"ō":{"ha":799,"x_min":51,"x_max":747,"o":"m 594 836 l 203 836 l 203 906 l 594 906 l 594 836 m 649 94 q 599 40 649 94 q 399 -14 550 -14 q 149 94 247 -14 q 51 367 51 201 q 149 638 51 531 q 399 744 247 744 q 649 638 550 744 q 747 367 747 532 q 649 94 747 201 m 399 71 q 578 151 508 71 q 649 367 649 232 q 578 579 649 499 q 399 660 508 660 q 220 579 290 660 q 150 367 150 499 q 220 151 150 232 q 399 71 290 71 z "},"Ő":{"ha":1117,"x_min":56,"x_max":1063,"o":"m 715 1082 l 610 1082 l 753 1268 l 863 1268 l 715 1082 m 474 1082 l 368 1082 l 507 1268 l 615 1268 l 474 1082 m 918 130 q 846 55 918 130 q 558 -21 774 -21 q 199 130 343 -21 q 56 500 56 281 q 199 869 56 719 q 558 1018 343 1018 q 918 869 774 1018 q 1063 500 1063 719 q 918 130 1063 281 m 558 72 q 844 195 733 72 q 954 500 954 318 q 844 803 954 682 q 558 925 733 925 q 274 803 385 925 q 163 500 163 682 q 274 195 163 318 q 558 72 385 72 z "},"ő":{"ha":799,"x_min":51,"x_max":747,"o":"m 556 817 l 450 817 l 593 1003 l 703 1003 l 556 817 m 314 817 l 208 817 l 347 1003 l 456 1003 l 314 817 m 649 94 q 599 40 649 94 q 399 -14 550 -14 q 149 94 247 -14 q 51 367 51 201 q 149 638 51 531 q 399 744 247 744 q 649 638 550 744 q 747 367 747 532 q 649 94 747 201 m 399 71 q 578 151 508 71 q 649 367 649 232 q 578 579 649 499 q 399 660 508 660 q 220 579 290 660 q 150 367 150 499 q 220 151 150 232 q 399 71 290 71 z "},"Œ":{"ha":1517,"x_min":56,"x_max":1436,"o":"m 178 125 q 117 198 178 125 q 56 500 56 271 q 178 874 56 729 q 499 1018 301 1018 q 710 956 617 1018 q 849 789 803 894 l 849 997 l 1426 997 l 1426 907 l 944 907 l 944 560 l 1385 560 l 1385 469 l 944 469 l 944 90 l 1436 90 l 1436 0 l 849 0 l 849 214 q 708 42 800 104 q 499 -21 617 -21 q 178 125 301 -21 m 255 808 q 209 750 255 808 q 163 500 163 692 q 255 190 163 308 q 503 72 347 72 q 749 190 657 72 q 842 500 842 308 q 750 808 842 692 q 503 925 658 925 q 255 808 347 925 z "},"œ":{"ha":1321,"x_min":51,"x_max":1267,"o":"m 51 367 q 147 639 51 533 q 386 744 242 744 q 558 692 482 744 q 672 550 633 640 q 781 694 708 642 q 947 746 854 746 q 1188 636 1101 746 q 1265 343 1275 526 l 721 343 q 785 135 724 208 q 954 63 847 63 q 1099 112 1043 63 q 1171 247 1156 161 l 1267 247 q 1159 57 1243 128 q 954 -14 1075 -14 q 781 37 854 -14 q 671 182 707 88 q 558 38 633 90 q 386 -14 482 -14 q 147 92 242 -14 q 51 367 51 199 m 947 671 q 790 601 853 671 q 724 410 728 532 l 1167 410 q 1103 603 1161 536 q 947 671 1046 671 m 150 367 q 216 151 150 232 q 388 71 282 71 q 559 151 493 71 q 625 367 625 231 q 559 580 625 500 q 388 660 493 660 q 217 580 283 660 q 150 367 150 500 z "},"Ŕ":{"ha":885,"x_min":113,"x_max":838,"o":"m 493 1082 l 385 1082 l 525 1268 l 640 1268 l 493 1082 m 217 0 l 113 0 l 113 997 l 468 997 q 719 918 628 997 q 811 696 811 839 q 742 505 811 583 q 556 407 674 426 l 838 0 l 713 0 l 444 394 l 217 394 l 217 0 m 217 910 l 217 482 l 460 482 q 642 538 576 482 q 707 696 707 593 q 642 854 707 799 q 460 910 576 910 l 217 910 z "},"ŕ":{"ha":489,"x_min":106,"x_max":507,"o":"m 360 817 l 250 817 l 390 1003 l 507 1003 l 360 817 m 203 392 l 203 0 l 106 0 l 106 732 l 196 732 l 196 565 q 309 695 233 647 q 475 743 385 743 l 475 642 q 280 578 357 646 q 203 392 203 510 z "},"Ŗ":{"ha":885,"x_min":113,"x_max":838,"o":"m 217 0 l 113 0 l 113 997 l 468 997 q 719 918 628 997 q 811 696 811 839 q 742 505 811 583 q 556 407 674 426 l 838 0 l 713 0 l 444 394 l 217 394 l 217 0 m 217 910 l 217 482 l 460 482 q 642 538 576 482 q 707 696 707 593 q 642 854 707 799 q 460 910 576 910 l 217 910 m 515 -161 q 468 -257 515 -217 q 347 -292 421 -297 l 347 -246 q 422 -228 393 -246 q 453 -182 450 -211 q 391 -180 418 -194 q 364 -135 364 -165 q 383 -93 364 -108 q 433 -78 403 -78 q 493 -101 471 -78 q 515 -161 515 -125 z "},"ŗ":{"ha":489,"x_min":65,"x_max":475,"o":"m 203 392 l 203 0 l 106 0 l 106 732 l 196 732 l 196 565 q 309 695 233 647 q 475 743 385 743 l 475 642 q 280 578 357 646 q 203 392 203 510 m 233 -161 q 186 -257 233 -217 q 65 -292 139 -297 l 65 -246 q 140 -228 111 -246 q 171 -182 168 -211 q 110 -180 136 -194 q 83 -135 83 -165 q 102 -93 83 -108 q 151 -78 121 -78 q 211 -101 189 -78 q 233 -161 233 -125 z "},"Ř":{"ha":885,"x_min":113,"x_max":838,"o":"m 490 1082 l 383 1082 l 200 1268 l 311 1268 l 438 1143 l 564 1268 l 675 1268 l 490 1082 m 217 0 l 113 0 l 113 997 l 468 997 q 719 918 628 997 q 811 696 811 839 q 742 505 811 583 q 556 407 674 426 l 838 0 l 713 0 l 444 394 l 217 394 l 217 0 m 217 910 l 217 482 l 460 482 q 642 538 576 482 q 707 696 707 593 q 642 854 707 799 q 460 910 576 910 l 217 910 z "},"ř":{"ha":489,"x_min":65,"x_max":540,"o":"m 357 817 l 250 817 l 65 1003 l 176 1003 l 303 878 l 431 1003 l 540 1003 l 357 817 m 203 392 l 203 0 l 106 0 l 106 732 l 196 732 l 196 565 q 309 695 233 647 q 475 743 385 743 l 475 642 q 280 578 357 646 q 203 392 203 510 z "},"Ś":{"ha":893,"x_min":72,"x_max":811,"o":"m 492 1082 l 383 1082 l 522 1268 l 639 1268 l 492 1082 m 811 276 q 715 69 811 153 q 450 -14 618 -14 q 179 73 279 -14 q 72 304 79 160 l 178 304 q 253 133 185 194 q 449 71 322 71 q 630 123 558 71 q 701 263 701 175 q 656 379 701 339 q 501 442 610 419 l 375 467 q 104 728 104 521 q 200 930 104 849 q 443 1011 296 1011 q 690 925 590 1011 q 799 699 790 839 l 692 699 q 618 863 686 799 q 444 926 550 926 q 272 869 335 926 q 210 733 210 813 q 265 615 210 653 q 421 557 321 576 l 547 531 q 745 444 679 503 q 811 276 811 385 z "},"ś":{"ha":717,"x_min":57,"x_max":653,"o":"m 407 817 l 299 817 l 439 1003 l 556 1003 l 407 817 m 653 204 q 576 44 653 103 q 364 -14 499 -14 q 148 51 228 -14 q 57 229 68 115 l 150 229 q 213 106 156 151 q 364 60 271 60 q 505 93 454 60 q 556 189 556 126 q 521 272 556 243 q 403 317 486 300 l 297 338 q 85 538 85 378 q 159 688 85 629 q 353 746 233 746 q 557 683 479 746 q 643 510 635 619 l 551 510 q 492 628 544 586 q 353 671 439 671 q 227 637 275 671 q 179 546 179 603 q 215 463 179 492 q 332 418 250 433 l 442 397 q 601 329 550 376 q 653 204 653 282 z "},"Ş":{"ha":893,"x_min":72,"x_max":811,"o":"m 585 -164 q 544 -244 585 -212 q 443 -275 503 -275 q 338 -244 381 -275 q 289 -157 296 -212 l 357 -157 q 440 -221 367 -221 q 491 -203 472 -221 q 510 -161 510 -186 q 474 -99 510 -118 q 388 -86 439 -81 l 410 -12 q 168 83 257 -3 q 72 304 79 168 l 178 304 q 253 133 185 194 q 449 71 322 71 q 630 123 558 71 q 701 263 701 175 q 656 379 701 339 q 501 442 610 419 l 375 467 q 104 728 104 521 q 200 930 104 849 q 443 1011 296 1011 q 690 925 590 1011 q 799 699 790 839 l 692 699 q 618 863 686 799 q 444 926 550 926 q 272 869 335 926 q 210 733 210 813 q 265 615 210 653 q 421 557 321 576 l 547 531 q 745 444 679 503 q 811 276 811 385 q 719 74 811 156 q 468 -14 628 -8 l 456 -51 q 549 -85 513 -54 q 585 -164 585 -117 z "},"ş":{"ha":717,"x_min":57,"x_max":653,"o":"m 508 -164 q 468 -244 508 -214 q 367 -275 428 -275 q 263 -244 304 -275 q 213 -157 221 -214 l 281 -157 q 365 -221 293 -221 q 415 -203 396 -221 q 433 -161 433 -186 q 398 -99 433 -118 q 311 -86 363 -81 l 335 -12 q 139 57 211 -7 q 57 229 67 121 l 150 229 q 213 106 156 151 q 364 60 271 60 q 505 93 454 60 q 556 189 556 126 q 521 272 556 243 q 403 317 486 300 l 297 338 q 85 538 85 378 q 159 688 85 629 q 353 746 233 746 q 557 683 479 746 q 643 510 635 619 l 551 510 q 492 628 544 586 q 353 671 439 671 q 227 637 275 671 q 179 546 179 603 q 215 463 179 492 q 332 418 250 433 l 442 397 q 601 329 550 376 q 653 204 653 282 q 584 51 653 108 q 392 -12 515 -6 l 379 -51 q 472 -85 436 -54 q 508 -164 508 -117 z "},"Š":{"ha":893,"x_min":72,"x_max":811,"o":"m 489 1082 l 382 1082 l 199 1268 l 310 1268 l 435 1143 l 563 1268 l 674 1268 l 489 1082 m 811 276 q 715 69 811 153 q 450 -14 618 -14 q 179 73 279 -14 q 72 304 79 160 l 178 304 q 253 133 185 194 q 449 71 322 71 q 630 123 558 71 q 701 263 701 175 q 656 379 701 339 q 501 442 610 419 l 375 467 q 104 728 104 521 q 200 930 104 849 q 443 1011 296 1011 q 690 925 590 1011 q 799 699 790 839 l 692 699 q 618 863 686 799 q 444 926 550 926 q 272 869 335 926 q 210 733 210 813 q 265 615 210 653 q 421 557 321 576 l 547 531 q 745 444 679 503 q 811 276 811 385 z "},"š":{"ha":717,"x_min":57,"x_max":653,"o":"m 404 817 l 297 817 l 114 1003 l 225 1003 l 351 878 l 478 1003 l 589 1003 l 404 817 m 653 204 q 576 44 653 103 q 364 -14 499 -14 q 148 51 228 -14 q 57 229 68 115 l 150 229 q 213 106 156 151 q 364 60 271 60 q 505 93 454 60 q 556 189 556 126 q 521 272 556 243 q 403 317 486 300 l 297 338 q 85 538 85 378 q 159 688 85 629 q 353 746 233 746 q 557 683 479 746 q 643 510 635 619 l 551 510 q 492 628 544 586 q 353 671 439 671 q 227 637 275 671 q 179 546 179 603 q 215 463 179 492 q 332 418 250 433 l 442 397 q 601 329 550 376 q 653 204 653 282 z "},"Ţ":{"ha":828,"x_min":28,"x_max":800,"o":"m 465 0 l 438 0 l 419 -51 q 513 -85 476 -54 q 549 -164 549 -117 q 508 -244 549 -212 q 407 -275 467 -275 q 302 -244 344 -275 q 253 -157 260 -212 l 321 -157 q 404 -221 331 -221 q 455 -203 436 -221 q 474 -161 474 -186 q 438 -99 474 -118 q 351 -86 403 -81 l 378 0 l 363 0 l 363 904 l 28 904 l 28 997 l 800 997 l 800 904 l 465 904 l 465 0 z "},"ţ":{"ha":531,"x_min":-10,"x_max":489,"o":"m 456 -164 q 415 -244 456 -214 q 314 -275 375 -275 q 210 -244 251 -275 q 160 -157 168 -214 l 228 -157 q 313 -221 240 -221 q 362 -203 343 -221 q 381 -161 381 -186 q 345 -99 381 -118 q 258 -86 310 -81 l 286 0 q 163 207 163 44 l 163 650 l -10 650 l -10 732 l 163 732 l 163 949 l 260 949 l 260 732 l 489 732 l 489 650 l 260 650 l 260 228 q 396 75 260 75 q 482 93 438 75 l 482 7 q 376 -14 431 -14 q 340 -12 351 -14 l 326 -51 q 419 -85 383 -54 q 456 -164 456 -117 z "},"Ť":{"ha":828,"x_min":28,"x_max":800,"o":"m 468 1082 l 360 1082 l 176 1268 l 288 1268 l 414 1143 l 542 1268 l 651 1268 l 468 1082 m 465 0 l 363 0 l 363 904 l 28 904 l 28 997 l 800 997 l 800 904 l 465 904 l 465 0 z "},"ť":{"ha":531,"x_min":-10,"x_max":489,"o":"m 397 793 l 333 793 l 333 997 l 421 997 l 397 793 m 482 93 l 482 7 q 376 -14 431 -14 q 221 40 279 -14 q 163 207 163 94 l 163 650 l -10 650 l -10 732 l 163 732 l 163 949 l 260 949 l 260 732 l 489 732 l 489 650 l 260 650 l 260 228 q 396 75 260 75 q 482 93 438 75 z "},"Ū":{"ha":949,"x_min":110,"x_max":839,"o":"m 669 1101 l 278 1101 l 278 1171 l 669 1171 l 669 1101 m 839 997 l 839 342 q 740 77 839 175 q 475 -21 640 -21 q 209 77 308 -21 q 110 342 110 175 l 110 997 l 214 997 l 214 336 q 286 144 214 215 q 475 72 358 72 q 663 144 592 72 q 735 336 735 215 l 735 997 l 839 997 z "},"ū":{"ha":775,"x_min":99,"x_max":669,"o":"m 583 836 l 192 836 l 192 906 l 583 906 l 583 836 m 574 296 l 574 732 l 669 732 l 669 0 l 579 0 l 579 132 q 488 26 550 67 q 346 -14 425 -14 q 165 53 231 -14 q 99 256 99 121 l 99 732 l 196 732 l 196 276 q 372 71 196 71 q 517 135 460 71 q 574 296 574 199 z "},"Ů":{"ha":949,"x_min":110,"x_max":839,"o":"m 475 1076 q 362 1119 407 1076 q 317 1224 317 1163 q 362 1328 317 1285 q 475 1371 407 1371 q 588 1328 542 1371 q 633 1224 633 1285 q 588 1119 633 1163 q 475 1076 542 1076 m 475 1133 q 541 1157 515 1133 q 567 1224 567 1181 q 541 1290 567 1267 q 475 1314 515 1314 q 410 1290 436 1314 q 383 1224 383 1265 q 410 1157 383 1181 q 475 1133 436 1133 m 839 997 l 839 342 q 740 77 839 175 q 475 -21 640 -21 q 209 77 308 -21 q 110 342 110 175 l 110 997 l 214 997 l 214 336 q 286 144 214 215 q 475 72 358 72 q 663 144 592 72 q 735 336 735 215 l 735 997 l 839 997 z "},"ů":{"ha":775,"x_min":99,"x_max":669,"o":"m 388 811 q 275 854 321 811 q 229 958 229 897 q 275 1063 229 1019 q 388 1106 321 1106 q 501 1063 456 1106 q 547 958 547 1019 q 501 854 547 897 q 388 811 456 811 m 388 868 q 454 892 428 868 q 481 958 481 915 q 454 1024 481 1000 q 388 1047 428 1047 q 322 1024 349 1047 q 296 958 296 1000 q 322 892 296 915 q 388 868 349 868 m 574 296 l 574 732 l 669 732 l 669 0 l 579 0 l 579 132 q 488 26 550 67 q 346 -14 425 -14 q 165 53 231 -14 q 99 256 99 121 l 99 732 l 196 732 l 196 276 q 372 71 196 71 q 517 135 460 71 q 574 296 574 199 z "},"Ű":{"ha":949,"x_min":110,"x_max":839,"o":"m 631 1082 l 526 1082 l 668 1268 l 778 1268 l 631 1082 m 389 1082 l 283 1082 l 422 1268 l 531 1268 l 389 1082 m 839 997 l 839 342 q 740 77 839 175 q 475 -21 640 -21 q 209 77 308 -21 q 110 342 110 175 l 110 997 l 214 997 l 214 336 q 286 144 214 215 q 475 72 358 72 q 663 144 592 72 q 735 336 735 215 l 735 997 l 839 997 z "},"ű":{"ha":775,"x_min":99,"x_max":692,"o":"m 544 817 l 439 817 l 582 1003 l 692 1003 l 544 817 m 303 817 l 197 817 l 336 1003 l 444 1003 l 303 817 m 574 296 l 574 732 l 669 732 l 669 0 l 579 0 l 579 132 q 488 26 550 67 q 346 -14 425 -14 q 165 53 231 -14 q 99 256 99 121 l 99 732 l 196 732 l 196 276 q 372 71 196 71 q 517 135 460 71 q 574 296 574 199 z "},"Ų":{"ha":949,"x_min":110,"x_max":839,"o":"m 674 -192 l 674 -261 q 597 -275 633 -275 q 499 -241 538 -275 q 461 -150 461 -207 q 528 -18 461 -81 q 475 -21 494 -21 q 209 77 308 -21 q 110 342 110 175 l 110 997 l 214 997 l 214 336 q 286 144 214 215 q 475 72 358 72 q 663 144 592 72 q 735 336 735 215 l 735 997 l 839 997 l 839 342 q 785 135 839 221 q 635 8 732 49 q 543 -128 543 -50 q 563 -183 543 -162 q 618 -204 583 -204 q 674 -192 642 -204 z "},"ų":{"ha":775,"x_min":99,"x_max":671,"o":"m 574 296 l 574 732 l 669 732 l 669 0 l 619 0 q 539 -128 539 -56 q 559 -183 539 -162 q 614 -204 579 -204 q 671 -192 639 -204 l 671 -261 q 593 -275 631 -275 q 497 -241 535 -275 q 458 -150 458 -207 q 579 26 458 -62 l 579 132 q 488 26 550 67 q 346 -14 425 -14 q 165 53 231 -14 q 99 256 99 121 l 99 732 l 196 732 l 196 276 q 372 71 196 71 q 517 135 460 71 q 574 296 574 199 z "},"Ŵ":{"ha":1285,"x_min":38,"x_max":1249,"o":"m 517 1082 l 406 1082 l 589 1268 l 696 1268 l 881 1082 l 769 1082 l 643 1207 l 517 1082 m 876 0 l 643 856 l 408 0 l 300 0 l 38 997 l 139 997 l 354 151 l 588 997 l 699 997 l 929 149 l 1146 997 l 1249 997 l 986 0 l 876 0 z "},"ŵ":{"ha":1049,"x_min":21,"x_max":1028,"o":"m 399 817 l 288 817 l 471 1003 l 578 1003 l 763 817 l 651 817 l 524 942 l 399 817 m 715 0 l 524 603 l 333 0 l 235 0 l 21 732 l 117 732 l 286 138 l 476 732 l 572 732 l 761 136 l 931 732 l 1028 732 l 813 0 l 715 0 z "},"Ŷ":{"ha":860,"x_min":14,"x_max":846,"o":"m 306 1082 l 194 1082 l 378 1268 l 486 1268 l 669 1082 l 558 1082 l 432 1207 l 306 1082 m 481 374 l 481 0 l 376 0 l 376 374 l 14 997 l 128 997 l 432 471 l 738 997 l 846 997 l 481 374 z "},"ŷ":{"ha":676,"x_min":7,"x_max":669,"o":"m 213 817 l 101 817 l 285 1003 l 392 1003 l 576 817 l 465 817 l 339 942 l 213 817 m 669 732 l 294 -268 l 190 -268 l 297 10 l 7 732 l 111 732 l 347 126 l 571 732 l 669 732 z "},"Ÿ":{"ha":860,"x_min":14,"x_max":846,"o":"m 635 1168 q 613 1115 635 1136 q 557 1093 590 1093 q 500 1115 522 1093 q 478 1168 478 1136 q 500 1224 478 1203 q 557 1244 522 1244 q 613 1223 590 1244 q 635 1168 635 1201 m 386 1168 q 364 1115 386 1136 q 307 1093 342 1093 q 251 1115 274 1093 q 229 1168 229 1136 q 251 1224 229 1203 q 307 1244 272 1244 q 365 1224 343 1244 q 386 1168 386 1203 m 481 374 l 481 0 l 376 0 l 376 374 l 14 997 l 128 997 l 432 471 l 738 997 l 846 997 l 481 374 z "},"Ź":{"ha":835,"x_min":53,"x_max":783,"o":"m 475 1082 l 365 1082 l 506 1268 l 622 1268 l 475 1082 m 783 0 l 53 0 l 53 75 l 632 907 l 71 907 l 71 997 l 763 997 l 763 921 l 182 90 l 783 90 l 783 0 z "},"ź":{"ha":664,"x_min":40,"x_max":626,"o":"m 390 817 l 282 817 l 421 1003 l 538 1003 l 390 817 m 626 0 l 40 0 l 40 71 l 490 649 l 54 649 l 54 732 l 610 732 l 610 657 l 163 83 l 626 83 l 626 0 z "},"Ż":{"ha":835,"x_min":53,"x_max":783,"o":"m 475 1219 q 486 1209 475 1219 q 497 1167 497 1199 q 475 1114 497 1135 q 418 1093 453 1093 q 362 1114 383 1093 q 340 1167 340 1135 q 362 1219 340 1199 q 418 1239 383 1239 q 475 1219 453 1239 m 783 0 l 53 0 l 53 75 l 632 907 l 71 907 l 71 997 l 763 997 l 763 921 l 182 90 l 783 90 l 783 0 z "},"ż":{"ha":664,"x_min":40,"x_max":626,"o":"m 391 953 q 402 943 391 953 q 413 901 413 933 q 391 849 413 869 q 335 828 369 828 q 278 849 300 828 q 256 901 256 869 q 278 953 256 933 q 335 974 300 974 q 391 953 369 974 m 626 0 l 40 0 l 40 71 l 490 649 l 54 649 l 54 732 l 610 732 l 610 657 l 163 83 l 626 83 l 626 0 z "},"Ž":{"ha":835,"x_min":53,"x_max":783,"o":"m 472 1082 l 365 1082 l 181 1268 l 292 1268 l 418 1143 l 546 1268 l 656 1268 l 472 1082 m 783 0 l 53 0 l 53 75 l 632 907 l 71 907 l 71 997 l 763 997 l 763 921 l 182 90 l 783 90 l 783 0 z "},"ž":{"ha":664,"x_min":40,"x_max":626,"o":"m 388 817 l 281 817 l 97 1003 l 208 1003 l 333 878 l 461 1003 l 572 1003 l 388 817 m 626 0 l 40 0 l 40 71 l 490 649 l 54 649 l 54 732 l 610 732 l 610 657 l 163 83 l 626 83 l 626 0 z "},"ƒ":{"ha":775,"x_min":33,"x_max":728,"o":"m 429 425 l 350 117 q 114 -89 300 -89 q 33 -79 72 -89 l 33 10 q 103 -1 74 -1 q 256 128 224 -1 l 332 425 l 82 425 l 82 507 l 351 507 l 411 739 q 644 953 464 953 q 728 940 692 953 l 728 860 q 660 872 699 872 q 561 838 597 872 q 506 731 525 804 l 449 507 l 681 507 l 681 425 l 429 425 z "},"Ș":{"ha":893,"x_min":72,"x_max":811,"o":"m 811 276 q 715 69 811 153 q 450 -14 618 -14 q 179 73 279 -14 q 72 304 79 160 l 178 304 q 253 133 185 194 q 449 71 322 71 q 630 123 558 71 q 701 263 701 175 q 656 379 701 339 q 501 442 610 419 l 375 467 q 104 728 104 521 q 200 930 104 849 q 443 1011 296 1011 q 690 925 590 1011 q 799 699 790 839 l 692 699 q 618 863 686 799 q 444 926 550 926 q 272 869 335 926 q 210 733 210 813 q 265 615 210 653 q 421 557 321 576 l 547 531 q 745 444 679 503 q 811 276 811 385 m 528 -161 q 481 -257 528 -217 q 360 -292 433 -297 l 360 -246 q 434 -228 406 -246 q 465 -182 463 -211 q 403 -180 431 -194 q 376 -135 376 -165 q 396 -93 376 -108 q 446 -78 415 -78 q 506 -101 483 -78 q 528 -161 528 -125 z "},"ș":{"ha":717,"x_min":57,"x_max":653,"o":"m 653 204 q 576 44 653 103 q 364 -14 499 -14 q 148 51 228 -14 q 57 229 68 115 l 150 229 q 213 106 156 151 q 364 60 271 60 q 505 93 454 60 q 556 189 556 126 q 521 272 556 243 q 403 317 486 300 l 297 338 q 85 538 85 378 q 159 688 85 629 q 353 746 233 746 q 557 683 479 746 q 643 510 635 619 l 551 510 q 492 628 544 586 q 353 671 439 671 q 227 637 275 671 q 179 546 179 603 q 215 463 179 492 q 332 418 250 433 l 442 397 q 601 329 550 376 q 653 204 653 282 m 451 -161 q 404 -257 451 -217 q 283 -292 357 -297 l 283 -246 q 358 -228 329 -246 q 389 -182 386 -211 q 328 -180 354 -194 q 301 -135 301 -165 q 320 -93 301 -108 q 369 -78 339 -78 q 429 -101 407 -78 q 451 -161 451 -125 z "},"Ț":{"ha":828,"x_min":28,"x_max":800,"o":"m 465 0 l 363 0 l 363 904 l 28 904 l 28 997 l 800 997 l 800 904 l 465 904 l 465 0 m 492 -161 q 444 -257 492 -217 q 324 -292 397 -297 l 324 -246 q 398 -228 369 -246 q 429 -182 426 -211 q 367 -180 394 -194 q 340 -135 340 -165 q 360 -93 340 -108 q 410 -78 379 -78 q 469 -101 447 -78 q 492 -161 492 -125 z "},"ț":{"ha":531,"x_min":-10,"x_max":489,"o":"m 482 93 l 482 7 q 376 -14 431 -14 q 221 40 279 -14 q 163 207 163 94 l 163 650 l -10 650 l -10 732 l 163 732 l 163 949 l 260 949 l 260 732 l 489 732 l 489 650 l 260 650 l 260 228 q 396 75 260 75 q 482 93 438 75 m 399 -161 q 351 -257 399 -217 q 231 -292 304 -297 l 231 -246 q 305 -228 276 -246 q 336 -182 333 -211 q 275 -180 301 -194 q 249 -135 249 -165 q 267 -93 249 -108 q 317 -78 286 -78 q 376 -101 354 -78 q 399 -161 399 -125 z "},"ȷ":{"ha":307,"x_min":-92,"x_max":201,"o":"m 201 732 l 201 -69 q 147 -227 201 -172 q -1 -282 93 -282 q -92 -268 -58 -282 l -92 -179 q -11 -193 -54 -193 q 106 -68 106 -193 l 106 732 l 201 732 z "},"ˆ":{"ha":694,"x_min":110,"x_max":585,"o":"m 221 817 l 110 817 l 294 1003 l 401 1003 l 585 817 l 475 817 l 347 942 l 221 817 z "},"ˇ":{"ha":694,"x_min":110,"x_max":585,"o":"m 400 817 l 293 817 l 110 1003 l 221 1003 l 346 878 l 474 1003 l 585 1003 l 400 817 z "},"ˉ":{"ha":694,"x_min":151,"x_max":543,"o":"m 543 831 l 151 831 l 151 900 l 543 900 l 543 831 z "},"˘":{"ha":694,"x_min":146,"x_max":550,"o":"m 472 1003 l 550 1003 q 494 866 550 919 q 347 813 439 813 q 201 866 256 813 q 146 1003 146 919 l 222 1003 q 256 913 222 947 q 347 879 290 879 q 439 913 406 879 q 472 1003 472 947 z "},"˙":{"ha":694,"x_min":268,"x_max":426,"o":"m 404 953 q 415 943 404 953 q 426 901 426 933 q 404 849 426 869 q 347 828 382 828 q 290 849 313 828 q 268 901 268 869 q 290 953 268 933 q 347 974 313 974 q 404 953 382 974 z "},"˚":{"ha":694,"x_min":189,"x_max":507,"o":"m 347 811 q 234 854 279 811 q 189 958 189 897 q 234 1063 189 1019 q 347 1106 279 1106 q 460 1063 414 1106 q 507 958 507 1019 q 460 854 507 897 q 347 811 414 811 m 347 868 q 413 892 388 868 q 439 958 439 915 q 413 1024 439 1000 q 347 1047 388 1047 q 282 1024 308 1047 q 256 958 256 1000 q 282 892 256 915 q 347 868 308 868 z "},"˛":{"ha":694,"x_min":242,"x_max":454,"o":"m 454 -192 l 454 -261 q 378 -275 417 -275 q 280 -241 318 -275 q 242 -150 242 -207 q 283 -44 242 -92 q 401 53 325 3 l 436 21 q 324 -128 324 -43 q 344 -183 324 -162 q 399 -204 364 -204 q 454 -192 422 -204 z "},"˜":{"ha":694,"x_min":122,"x_max":572,"o":"m 189 815 l 122 815 q 149 949 115 899 q 246 999 183 999 q 321 973 285 999 q 387 922 357 947 q 442 897 417 897 q 504 1007 507 897 l 572 1007 q 544 874 579 924 q 447 824 510 824 q 373 849 408 824 q 308 900 338 875 q 253 925 278 925 q 189 815 186 925 z "},"˝":{"ha":694,"x_min":100,"x_max":594,"o":"m 447 817 l 343 817 l 485 1003 l 594 1003 l 447 817 m 206 817 l 100 817 l 239 1003 l 349 1003 l 206 817 z "},"̀":{"ha":694,"x_min":218,"x_max":476,"o":"m 476 817 l 367 817 l 218 1003 l 335 1003 l 476 817 z "},"́":{"ha":694,"x_min":218,"x_max":475,"o":"m 328 817 l 218 817 l 358 1003 l 475 1003 l 328 817 z "},"̂":{"ha":694,"x_min":110,"x_max":585,"o":"m 221 817 l 110 817 l 294 1003 l 401 1003 l 585 817 l 475 817 l 347 942 l 221 817 z "},"̃":{"ha":694,"x_min":122,"x_max":572,"o":"m 189 815 l 122 815 q 149 949 115 899 q 246 999 183 999 q 321 973 285 999 q 387 922 357 947 q 442 897 417 897 q 504 1007 507 897 l 572 1007 q 544 874 579 924 q 447 824 510 824 q 373 849 408 824 q 308 900 338 875 q 253 925 278 925 q 189 815 186 925 z "},"̄":{"ha":694,"x_min":151,"x_max":544,"o":"m 544 836 l 151 836 l 151 906 l 544 906 l 544 836 z "},"̆":{"ha":694,"x_min":146,"x_max":550,"o":"m 472 1003 l 550 1003 q 494 866 550 919 q 347 813 439 813 q 201 866 256 813 q 146 1003 146 919 l 222 1003 q 256 913 222 947 q 347 879 290 879 q 439 913 406 879 q 472 1003 472 947 z "},"̇":{"ha":694,"x_min":268,"x_max":426,"o":"m 404 953 q 415 943 404 953 q 426 901 426 933 q 404 849 426 869 q 347 828 382 828 q 290 849 313 828 q 268 901 268 869 q 290 953 268 933 q 347 974 313 974 q 404 953 382 974 z "},"̈":{"ha":694,"x_min":144,"x_max":550,"o":"m 550 903 q 528 849 550 871 q 472 828 506 828 q 415 849 438 828 q 393 903 393 871 q 415 958 393 938 q 472 979 438 979 q 528 958 507 979 q 550 903 550 938 m 301 903 q 279 849 301 871 q 224 828 257 828 q 167 849 189 828 q 144 903 144 871 q 167 958 144 938 q 224 979 189 979 q 280 958 258 979 q 301 903 301 938 z "},"̊":{"ha":694,"x_min":189,"x_max":507,"o":"m 347 811 q 234 854 279 811 q 189 958 189 897 q 234 1063 189 1019 q 347 1106 279 1106 q 460 1063 414 1106 q 507 958 507 1019 q 460 854 507 897 q 347 811 414 811 m 347 868 q 413 892 388 868 q 439 958 439 915 q 413 1024 439 1000 q 347 1047 388 1047 q 282 1024 308 1047 q 256 958 256 1000 q 282 892 256 915 q 347 868 308 868 z "},"̋":{"ha":694,"x_min":100,"x_max":594,"o":"m 447 817 l 343 817 l 485 1003 l 594 1003 l 447 817 m 206 817 l 100 817 l 239 1003 l 349 1003 l 206 817 z "},"̌":{"ha":694,"x_min":110,"x_max":585,"o":"m 400 817 l 293 817 l 110 1003 l 221 1003 l 346 878 l 474 1003 l 585 1003 l 400 817 z "},"̒":{"ha":694,"x_min":264,"x_max":432,"o":"m 264 893 q 311 988 264 949 q 432 1024 358 1028 l 432 978 q 358 960 386 978 q 326 914 329 943 q 356 919 346 919 q 398 904 381 919 q 415 867 415 889 q 396 825 415 840 q 346 810 376 810 q 286 833 308 810 q 264 893 264 857 z "},"̦":{"ha":694,"x_min":263,"x_max":431,"o":"m 431 -161 q 383 -257 431 -217 q 263 -292 336 -297 l 263 -246 q 337 -228 308 -246 q 368 -182 365 -211 q 306 -180 333 -194 q 279 -135 279 -165 q 299 -93 279 -108 q 349 -78 318 -78 q 408 -101 386 -78 q 431 -161 431 -125 z "},"̧":{"ha":694,"x_min":199,"x_max":494,"o":"m 494 -164 q 454 -244 494 -214 q 353 -275 414 -275 q 249 -244 290 -275 q 199 -157 207 -214 l 267 -157 q 351 -221 279 -221 q 401 -203 382 -221 q 419 -161 419 -186 q 384 -99 419 -118 q 297 -86 349 -81 l 329 14 l 388 14 l 365 -51 q 458 -85 422 -54 q 494 -164 494 -117 z "},"̨":{"ha":694,"x_min":242,"x_max":454,"o":"m 454 -192 l 454 -261 q 378 -275 417 -275 q 280 -241 318 -275 q 242 -150 242 -207 q 283 -44 242 -92 q 401 53 325 3 l 436 21 q 324 -128 324 -43 q 344 -183 324 -162 q 399 -204 364 -204 q 454 -192 422 -204 z "},"̵":{"ha":694,"x_min":144,"x_max":551,"o":"m 551 831 l 144 831 l 144 900 l 551 900 l 551 831 z "},"̷":{"ha":694,"x_min":136,"x_max":560,"o":"m 560 514 l 136 401 l 136 482 l 560 596 l 560 514 z "},"̸":{"ha":694,"x_min":13,"x_max":681,"o":"m 96 0 l 13 0 l 597 732 l 681 732 l 96 0 z "},"Δ":{"ha":949,"x_min":32,"x_max":917,"o":"m 917 0 l 32 0 l 421 997 l 529 997 l 917 0 m 472 890 l 161 85 l 782 85 l 472 890 z "},"Ω":{"ha":968,"x_min":40,"x_max":928,"o":"m 438 0 l 47 0 l 47 89 l 353 85 l 353 176 q 126 325 211 221 q 40 585 40 429 q 165 889 40 767 q 485 1011 290 1011 q 803 889 679 1011 q 928 585 928 767 q 842 326 928 431 q 617 176 757 221 l 617 85 l 921 89 l 921 0 l 532 0 l 532 228 q 749 349 671 258 q 826 576 826 440 q 733 823 826 722 q 485 924 639 924 q 238 823 331 924 q 144 576 144 722 q 222 349 144 440 q 438 228 300 258 l 438 0 z "},"μ":{"ha":786,"x_min":106,"x_max":681,"o":"m 382 -14 q 194 78 250 -14 l 203 -268 l 106 -268 l 106 732 l 203 732 l 203 285 q 252 124 203 178 q 386 71 301 71 q 531 133 478 71 q 585 292 585 194 l 585 732 l 681 732 l 681 0 l 586 0 l 586 118 q 506 22 561 58 q 382 -14 451 -14 z "},"π":{"ha":796,"x_min":-10,"x_max":754,"o":"m 663 -14 q 475 194 475 -14 l 475 650 l 271 650 l 210 0 l 115 0 l 183 650 l -10 650 l -10 732 l 754 732 l 754 650 l 572 650 l 572 211 q 686 78 572 78 q 749 90 719 78 l 749 1 q 663 -14 704 -14 z "},"Ẁ":{"ha":1285,"x_min":38,"x_max":1249,"o":"m 694 1082 l 586 1082 l 438 1268 l 554 1268 l 694 1082 m 876 0 l 643 856 l 408 0 l 300 0 l 38 997 l 139 997 l 354 151 l 588 997 l 699 997 l 929 149 l 1146 997 l 1249 997 l 986 0 l 876 0 z "},"ẁ":{"ha":1049,"x_min":21,"x_max":1028,"o":"m 576 817 l 468 817 l 319 1003 l 436 1003 l 576 817 m 715 0 l 524 603 l 333 0 l 235 0 l 21 732 l 117 732 l 286 138 l 476 732 l 572 732 l 761 136 l 931 732 l 1028 732 l 813 0 l 715 0 z "},"Ẃ":{"ha":1285,"x_min":38,"x_max":1249,"o":"m 699 1082 l 590 1082 l 731 1268 l 847 1268 l 699 1082 m 876 0 l 643 856 l 408 0 l 300 0 l 38 997 l 139 997 l 354 151 l 588 997 l 699 997 l 929 149 l 1146 997 l 1249 997 l 986 0 l 876 0 z "},"ẃ":{"ha":1049,"x_min":21,"x_max":1028,"o":"m 581 817 l 472 817 l 613 1003 l 728 1003 l 581 817 m 715 0 l 524 603 l 333 0 l 235 0 l 21 732 l 117 732 l 286 138 l 476 732 l 572 732 l 761 136 l 931 732 l 1028 732 l 813 0 l 715 0 z "},"Ẅ":{"ha":1285,"x_min":38,"x_max":1249,"o":"m 846 1168 q 824 1115 846 1136 q 768 1093 801 1093 q 711 1115 733 1093 q 689 1168 689 1136 q 711 1224 689 1203 q 768 1244 733 1244 q 824 1223 801 1244 q 846 1168 846 1201 m 597 1168 q 575 1115 597 1136 q 518 1093 553 1093 q 463 1115 485 1093 q 440 1168 440 1136 q 462 1224 440 1203 q 518 1244 483 1244 q 576 1224 554 1244 q 597 1168 597 1203 m 876 0 l 643 856 l 408 0 l 300 0 l 38 997 l 139 997 l 354 151 l 588 997 l 699 997 l 929 149 l 1146 997 l 1249 997 l 986 0 l 876 0 z "},"ẅ":{"ha":1049,"x_min":21,"x_max":1028,"o":"m 726 903 q 705 849 726 871 q 650 828 683 828 q 593 849 615 828 q 571 903 571 871 q 593 958 571 938 q 650 979 615 979 q 705 958 683 979 q 726 903 726 938 m 478 903 q 456 849 478 871 q 400 828 433 828 q 343 849 365 828 q 321 903 321 871 q 343 958 321 938 q 400 979 365 979 q 456 958 435 979 q 478 903 478 938 m 715 0 l 524 603 l 333 0 l 235 0 l 21 732 l 117 732 l 286 138 l 476 732 l 572 732 l 761 136 l 931 732 l 1028 732 l 813 0 l 715 0 z "},"Ỳ":{"ha":860,"x_min":14,"x_max":846,"o":"m 485 1082 l 375 1082 l 226 1268 l 343 1268 l 485 1082 m 481 374 l 481 0 l 376 0 l 376 374 l 14 997 l 128 997 l 432 471 l 738 997 l 846 997 l 481 374 z "},"ỳ":{"ha":676,"x_min":7,"x_max":669,"o":"m 390 817 l 282 817 l 133 1003 l 250 1003 l 390 817 m 669 732 l 294 -268 l 190 -268 l 297 10 l 7 732 l 111 732 l 347 126 l 571 732 l 669 732 z "},"–":{"ha":694,"x_min":28,"x_max":667,"o":"m 667 342 l 28 342 l 28 426 l 667 426 l 667 342 z "},"—":{"ha":1042,"x_min":28,"x_max":1014,"o":"m 1014 342 l 28 342 l 28 426 l 1014 426 l 1014 342 z "},"‘":{"ha":363,"x_min":85,"x_max":289,"o":"m 85 815 q 142 949 85 892 q 289 1003 199 1006 l 289 946 q 199 917 235 946 q 157 842 163 888 q 189 849 171 849 q 244 828 222 849 q 265 775 265 807 q 242 720 265 742 q 182 699 218 699 q 110 731 136 699 q 85 815 85 764 z "},"’":{"ha":363,"x_min":74,"x_max":278,"o":"m 278 889 q 221 756 278 813 q 74 701 164 699 l 74 758 q 163 788 126 758 q 206 863 199 817 q 172 856 192 856 q 119 876 140 856 q 97 929 97 897 q 121 985 97 964 q 181 1006 144 1006 q 252 973 226 1006 q 278 889 278 940 z "},"‚":{"ha":363,"x_min":74,"x_max":278,"o":"m 278 53 q 221 -80 278 -24 q 74 -135 164 -136 l 74 -78 q 163 -48 128 -76 q 206 26 199 -19 q 172 21 189 21 q 119 42 140 21 q 97 93 97 63 q 121 149 97 128 q 181 169 144 169 q 252 137 226 169 q 278 53 278 104 z "},"“":{"ha":624,"x_min":85,"x_max":550,"o":"m 85 815 q 142 949 85 892 q 289 1003 199 1006 l 289 946 q 199 917 235 946 q 157 842 163 888 q 189 849 171 849 q 244 828 222 849 q 265 775 265 807 q 242 720 265 742 q 182 699 218 699 q 110 731 136 699 q 85 815 85 764 m 346 815 q 403 949 346 892 q 550 1003 460 1006 l 550 946 q 460 917 496 946 q 418 842 424 888 q 451 849 432 849 q 505 828 483 849 q 526 775 526 807 q 503 719 526 740 q 443 699 479 699 q 372 731 397 699 q 346 815 346 764 z "},"”":{"ha":624,"x_min":74,"x_max":539,"o":"m 278 889 q 221 756 278 813 q 74 701 164 699 l 74 758 q 163 788 126 758 q 206 863 199 817 q 172 856 192 856 q 119 876 140 856 q 97 929 97 897 q 121 985 97 964 q 181 1006 144 1006 q 252 973 226 1006 q 278 889 278 940 m 539 889 q 482 756 539 813 q 335 701 425 699 l 335 758 q 424 788 389 758 q 467 863 460 817 q 433 856 453 856 q 380 876 401 856 q 358 929 358 897 q 382 985 358 964 q 442 1006 406 1006 q 513 973 488 1006 q 539 889 539 940 z "},"„":{"ha":624,"x_min":74,"x_max":539,"o":"m 278 53 q 221 -80 278 -24 q 74 -135 164 -136 l 74 -78 q 163 -48 128 -76 q 206 26 199 -19 q 172 21 189 21 q 119 42 140 21 q 97 93 97 63 q 121 149 97 128 q 181 169 144 169 q 252 137 226 169 q 278 53 278 104 m 539 53 q 482 -80 539 -24 q 335 -135 425 -136 l 335 -78 q 424 -48 389 -76 q 467 26 460 -19 q 433 21 451 21 q 380 42 401 21 q 358 93 358 63 q 382 149 358 128 q 442 169 406 169 q 513 137 488 169 q 539 53 539 104 z "},"†":{"ha":917,"x_min":111,"x_max":806,"o":"m 503 -268 l 414 -268 l 414 611 l 111 611 l 111 694 l 414 694 l 414 997 l 503 997 l 503 694 l 806 694 l 806 611 l 503 611 l 503 -268 z "},"‡":{"ha":917,"x_min":111,"x_max":806,"o":"m 503 -268 l 414 -268 l 414 35 l 111 35 l 111 118 l 414 118 l 414 611 l 111 611 l 111 694 l 414 694 l 414 997 l 503 997 l 503 694 l 806 694 l 806 611 l 503 611 l 503 118 l 806 118 l 806 35 l 503 35 l 503 -268 z "},"•":{"ha":694,"x_min":153,"x_max":542,"o":"m 542 365 q 487 228 542 282 q 347 174 432 174 q 208 228 264 174 q 153 365 153 282 q 208 507 153 451 q 347 563 264 563 q 487 507 432 563 q 542 365 542 451 z "},"…":{"ha":1144,"x_min":92,"x_max":1053,"o":"m 267 81 q 242 18 267 43 q 179 -7 218 -7 q 117 18 142 -7 q 92 81 92 43 q 117 144 92 119 q 179 169 142 169 q 242 144 218 169 q 267 81 267 119 m 660 81 q 635 18 660 43 q 572 -7 611 -7 q 510 18 535 -7 q 485 81 485 43 q 510 144 485 119 q 572 169 535 169 q 635 144 611 169 q 660 81 660 119 m 1053 81 q 1028 18 1053 43 q 965 -7 1004 -7 q 903 18 928 -7 q 878 81 878 43 q 903 144 878 119 q 965 169 928 169 q 1028 144 1004 169 q 1053 81 1053 119 z "},"‰":{"ha":2118,"x_min":50,"x_max":2068,"o":"m 533 448 q 494 406 533 448 q 331 364 454 364 q 128 448 207 364 q 50 656 50 532 q 128 863 50 779 q 331 947 207 947 q 533 863 454 947 q 613 656 613 779 q 533 448 613 532 m 503 0 l 421 0 l 949 939 l 1032 939 l 503 0 m 331 435 q 472 494 415 435 q 528 656 528 554 q 472 817 528 758 q 331 876 415 876 q 190 817 247 876 q 133 656 133 758 q 190 494 133 554 q 331 435 247 435 m 1335 73 q 1295 31 1335 73 q 1132 -11 1256 -11 q 929 73 1008 -11 q 850 281 850 157 q 929 488 850 404 q 1132 572 1008 572 q 1335 488 1256 572 q 1414 281 1414 404 q 1335 73 1414 157 m 1989 73 q 1949 31 1989 73 q 1786 -11 1910 -11 q 1584 73 1663 -11 q 1506 281 1506 157 q 1584 488 1506 404 q 1786 572 1663 572 q 1989 488 1910 572 q 2068 281 2068 404 q 1989 73 2068 157 m 992 119 q 1020 90 992 119 q 1132 60 1049 60 q 1272 119 1215 60 q 1329 281 1329 179 q 1272 442 1329 383 q 1132 500 1215 500 q 992 442 1049 500 q 935 281 935 383 q 992 119 935 179 m 1786 60 q 1927 119 1871 60 q 1983 281 1983 179 q 1927 442 1983 383 q 1786 500 1871 500 q 1646 442 1703 500 q 1589 281 1589 383 q 1646 119 1589 179 q 1786 60 1703 60 z "},"‹":{"ha":388,"x_min":44,"x_max":343,"o":"m 343 86 l 239 86 l 44 371 l 239 656 l 343 656 l 151 371 l 343 86 z "},"›":{"ha":388,"x_min":44,"x_max":343,"o":"m 44 656 l 149 656 l 343 371 l 149 86 l 44 86 l 235 371 l 44 656 z "},"⁄":{"ha":231,"x_min":-187,"x_max":422,"o":"m -107 0 l -187 0 l 340 939 l 422 939 l -107 0 z "},"⁰":{"ha":531,"x_min":44,"x_max":486,"o":"m 429 1212 q 458 1174 429 1212 q 486 996 486 1136 q 429 781 486 856 q 265 707 372 707 q 101 781 158 707 q 44 996 44 856 q 102 1212 44 1136 q 265 1288 160 1288 q 429 1212 372 1288 m 118 996 q 265 771 118 771 q 413 996 413 771 q 265 1224 413 1224 q 118 996 118 1224 z "},"⁴":{"ha":515,"x_min":26,"x_max":478,"o":"m 478 844 l 396 844 l 396 715 l 325 715 l 325 844 l 26 844 l 26 894 l 343 1279 l 396 1279 l 396 907 l 478 907 l 478 844 m 111 907 l 325 907 l 325 1169 l 111 907 z "},"⁵":{"ha":499,"x_min":42,"x_max":461,"o":"m 461 893 q 403 760 461 814 q 247 707 346 707 q 103 754 161 707 q 42 875 44 801 l 113 875 q 154 799 118 828 q 247 771 190 771 q 351 804 314 771 q 389 893 389 838 q 349 978 389 943 q 247 1013 310 1013 q 117 947 161 1013 l 61 964 l 115 1279 l 426 1279 l 426 1217 l 167 1217 l 133 1032 q 257 1075 189 1075 q 406 1022 350 1075 q 461 893 461 969 z "},"⁶":{"ha":519,"x_min":43,"x_max":476,"o":"m 476 896 q 414 762 476 815 q 260 708 351 708 q 105 762 167 708 q 43 893 43 815 q 56 962 43 929 q 82 1014 68 994 q 124 1067 96 1033 l 308 1279 l 389 1279 l 208 1071 q 272 1082 244 1082 q 418 1031 360 1082 q 476 896 476 981 m 403 894 q 363 987 403 951 q 260 1022 322 1022 q 157 989 197 1022 q 117 894 117 956 q 158 805 117 840 q 260 769 199 769 q 363 805 322 769 q 403 894 403 840 z "},"⁷":{"ha":435,"x_min":15,"x_max":419,"o":"m 419 1238 l 176 715 l 100 715 l 342 1217 l 15 1217 l 15 1279 l 419 1279 l 419 1238 z "},"⁸":{"ha":546,"x_min":54,"x_max":492,"o":"m 492 871 q 431 753 492 799 q 274 708 369 708 q 115 753 176 708 q 54 871 54 799 q 88 958 54 922 q 175 1008 121 993 q 81 1133 81 1047 q 135 1244 81 1201 q 274 1288 190 1288 q 410 1244 356 1288 q 465 1133 465 1200 q 439 1058 465 1092 q 371 1008 413 1025 q 458 958 425 993 q 492 871 492 922 m 154 1131 q 187 1063 154 1088 q 274 1038 219 1038 q 360 1063 326 1038 q 393 1131 393 1088 q 360 1201 393 1175 q 274 1228 326 1228 q 187 1202 219 1228 q 154 1131 154 1176 m 168 950 q 148 936 168 950 q 128 874 128 922 q 168 797 128 825 q 274 768 208 768 q 378 797 338 768 q 418 874 418 825 q 378 950 418 922 q 274 978 338 978 q 168 950 208 978 z "},"⁹":{"ha":521,"x_min":44,"x_max":478,"o":"m 44 1100 q 107 1234 44 1181 q 261 1288 169 1288 q 416 1233 354 1288 q 478 1101 478 1179 q 458 1014 478 1050 q 397 929 439 978 l 213 715 l 132 715 l 313 924 q 249 914 282 914 q 103 965 161 914 q 44 1100 44 1015 m 118 1101 q 158 1008 118 1043 q 260 974 197 974 q 364 1007 324 974 q 404 1100 404 1040 q 363 1191 404 1156 q 260 1226 322 1226 q 158 1191 199 1226 q 118 1101 118 1156 z "},"₀":{"ha":531,"x_min":44,"x_max":486,"o":"m 429 215 q 458 177 429 215 q 486 -1 486 139 q 429 -216 486 -142 q 265 -290 372 -290 q 101 -216 158 -290 q 44 -1 44 -142 q 102 215 44 139 q 265 290 160 290 q 429 215 372 290 m 118 -1 q 265 -226 118 -226 q 413 -1 413 -226 q 265 226 413 226 q 118 -1 118 226 z "},"₁":{"ha":307,"x_min":17,"x_max":207,"o":"m 207 -282 l 136 -282 l 136 221 l 17 221 l 17 282 l 207 282 l 207 -282 z "},"₂":{"ha":468,"x_min":35,"x_max":426,"o":"m 426 -219 l 426 -282 l 49 -282 l 49 -242 l 243 -44 q 322 46 297 10 q 346 124 346 82 q 313 197 346 167 q 226 226 279 226 q 137 196 171 226 q 103 115 103 165 l 35 115 q 90 242 35 193 q 231 290 146 290 q 367 244 314 290 q 419 131 419 197 q 391 36 419 79 q 296 -74 363 -7 l 157 -219 l 426 -219 z "},"₃":{"ha":528,"x_min":51,"x_max":472,"o":"m 472 -124 q 414 -243 472 -197 q 261 -289 356 -289 q 111 -244 169 -289 q 51 -124 53 -199 l 121 -124 q 163 -201 124 -172 q 263 -229 201 -229 q 362 -201 325 -229 q 399 -125 399 -172 q 358 -50 399 -78 q 249 -22 317 -22 l 188 -22 l 188 38 l 246 38 q 336 65 301 38 q 371 136 371 93 q 339 204 371 178 q 256 231 307 231 q 171 203 203 231 q 136 132 139 176 l 68 132 q 124 244 71 199 q 258 290 178 290 q 393 248 342 290 q 444 140 444 206 q 346 13 444 54 q 439 -38 406 -3 q 472 -124 472 -74 z "},"₄":{"ha":515,"x_min":26,"x_max":478,"o":"m 478 -153 l 396 -153 l 396 -282 l 325 -282 l 325 -153 l 26 -153 l 26 -103 l 343 282 l 396 282 l 396 -90 l 478 -90 l 478 -153 m 111 -90 l 325 -90 l 325 172 l 111 -90 z "},"₅":{"ha":499,"x_min":42,"x_max":461,"o":"m 461 -104 q 403 -237 461 -183 q 247 -290 346 -290 q 103 -243 161 -290 q 42 -122 44 -196 l 113 -122 q 154 -198 118 -169 q 247 -226 190 -226 q 351 -193 314 -226 q 389 -104 389 -160 q 349 -19 389 -54 q 247 15 310 15 q 117 -50 161 15 l 61 -33 l 115 282 l 426 282 l 426 219 l 167 219 l 133 35 q 257 78 189 78 q 406 25 350 78 q 461 -104 461 -28 z "},"₆":{"ha":519,"x_min":43,"x_max":476,"o":"m 476 -101 q 414 -235 476 -182 q 260 -289 351 -289 q 105 -235 167 -289 q 43 -104 43 -182 q 56 -35 43 -68 q 82 17 68 -3 q 124 69 96 36 l 308 282 l 389 282 l 208 74 q 272 85 244 85 q 418 34 360 85 q 476 -101 476 -17 m 403 -103 q 363 -10 403 -46 q 260 25 322 25 q 157 -8 197 25 q 117 -103 117 -42 q 158 -192 117 -157 q 260 -228 199 -228 q 363 -192 322 -228 q 403 -103 403 -157 z "},"₇":{"ha":435,"x_min":15,"x_max":419,"o":"m 419 240 l 176 -282 l 100 -282 l 342 219 l 15 219 l 15 282 l 419 282 l 419 240 z "},"₈":{"ha":546,"x_min":54,"x_max":492,"o":"m 492 -126 q 431 -244 492 -199 q 274 -289 369 -289 q 115 -244 176 -289 q 54 -126 54 -199 q 88 -40 54 -75 q 175 11 121 -4 q 81 136 81 50 q 135 247 81 204 q 274 290 190 290 q 410 247 356 290 q 465 136 465 203 q 439 61 465 94 q 371 11 413 28 q 458 -40 425 -4 q 492 -126 492 -75 m 154 133 q 187 65 154 90 q 274 40 219 40 q 360 65 326 40 q 393 133 393 90 q 360 204 393 178 q 274 231 326 231 q 187 205 219 231 q 154 133 154 179 m 168 -47 q 148 -61 168 -47 q 128 -124 128 -75 q 168 -201 128 -172 q 274 -229 208 -229 q 378 -201 338 -229 q 418 -124 418 -172 q 378 -47 418 -75 q 274 -19 338 -19 q 168 -47 208 -19 z "},"₉":{"ha":521,"x_min":44,"x_max":478,"o":"m 44 103 q 107 237 44 183 q 261 290 169 290 q 416 236 354 290 q 478 104 478 182 q 458 17 478 53 q 397 -68 439 -19 l 213 -282 l 132 -282 l 313 -74 q 249 -83 282 -83 q 103 -33 161 -83 q 44 103 44 18 m 118 104 q 158 11 118 46 q 260 -24 197 -24 q 364 10 324 -24 q 404 103 404 43 q 363 194 404 158 q 260 229 322 229 q 158 194 199 229 q 118 104 118 158 z "},"€":{"ha":804,"x_min":35,"x_max":758,"o":"m 758 124 l 758 31 q 574 -14 682 -14 q 310 84 413 -14 q 181 361 207 182 l 35 361 l 35 425 l 172 425 q 174 546 171 468 l 35 546 l 35 610 l 183 610 q 317 864 215 775 q 574 953 418 953 q 758 910 683 953 l 758 814 q 586 865 688 865 q 390 800 467 865 q 288 610 314 735 l 611 610 l 611 546 l 271 546 q 268 425 265 490 l 611 425 l 611 361 l 282 361 q 383 148 304 222 q 586 74 461 74 q 758 124 686 74 z "},"₹":{"ha":822,"x_min":81,"x_max":757,"o":"m 757 622 l 636 622 q 563 464 626 528 q 396 382 500 400 l 661 0 l 549 0 l 299 372 l 81 372 l 81 447 l 289 447 q 462 492 397 447 q 536 622 526 538 l 81 622 l 81 689 l 536 689 q 462 819 526 774 q 289 865 397 865 l 81 865 l 81 939 l 757 939 l 757 872 l 493 872 q 633 689 622 819 l 757 689 l 757 622 z "},"₺":{"ha":789,"x_min":35,"x_max":749,"o":"m 656 399 l 749 399 q 608 107 742 222 q 279 -8 475 -8 q 207 0 238 -8 l 207 431 l 35 388 l 35 454 l 207 497 l 207 622 l 35 578 l 35 644 l 207 689 l 207 939 l 304 939 l 304 711 l 626 793 l 626 728 l 304 646 l 304 522 l 626 603 l 626 536 l 304 456 l 304 75 q 552 169 453 78 q 656 399 651 260 z "},"₽":{"ha":800,"x_min":35,"x_max":753,"o":"m 714 192 l 313 192 l 313 0 l 217 0 l 217 192 l 35 192 l 35 258 l 217 258 l 217 382 l 35 382 l 35 449 l 217 449 l 217 939 l 421 939 q 663 866 574 939 q 753 660 753 793 q 660 456 753 529 q 414 382 568 382 l 313 382 l 313 258 l 714 258 l 714 192 m 413 867 l 313 867 l 313 449 l 410 449 q 594 502 529 449 q 658 654 658 556 q 594 812 658 757 q 413 867 531 867 z "},"™":{"ha":1113,"x_min":28,"x_max":1000,"o":"m 257 508 l 186 508 l 186 935 l 28 935 l 28 997 l 415 997 l 415 935 l 257 935 l 257 508 m 703 508 l 533 918 l 533 508 l 467 508 l 467 997 l 569 997 l 736 593 l 903 997 l 1000 997 l 1000 508 l 933 508 l 933 913 l 768 508 l 703 508 z "},"℮":{"ha":1157,"x_min":35,"x_max":1122,"o":"m 979 189 l 1038 189 q 594 -14 886 -14 q 193 133 351 -14 q 35 497 35 281 q 194 853 35 699 q 579 1008 353 1008 q 960 862 811 1008 q 1122 482 1108 715 l 271 482 q 242 451 242 482 l 242 217 q 350 80 242 136 q 594 24 458 24 q 826 66 726 24 q 979 189 926 108 m 242 790 l 242 547 q 271 517 242 517 l 888 517 q 915 547 915 517 l 915 782 q 813 914 915 856 q 579 972 710 972 q 346 916 450 972 q 242 790 242 860 z "},"∂":{"ha":801,"x_min":51,"x_max":750,"o":"m 51 361 q 149 633 51 533 q 388 732 246 732 q 506 706 446 732 l 279 997 l 388 997 l 628 689 q 721 532 692 607 q 750 351 750 457 q 652 90 750 194 q 400 -14 554 -14 q 149 94 247 -14 q 51 361 51 201 m 219 576 q 184 538 219 576 q 150 363 150 499 q 219 149 150 226 q 401 72 288 72 q 583 147 515 72 q 651 351 651 221 q 582 573 651 492 q 401 654 513 654 q 219 576 288 654 z "},"∆":{"ha":949,"x_min":32,"x_max":917,"o":"m 917 0 l 32 0 l 421 997 l 529 997 l 917 0 m 472 890 l 161 85 l 782 85 l 472 890 z "},"∏":{"ha":997,"x_min":113,"x_max":885,"o":"m 213 -268 l 113 -268 l 113 997 l 885 997 l 885 -268 l 783 -268 l 783 911 l 213 911 l 213 -268 z "},"∑":{"ha":835,"x_min":51,"x_max":783,"o":"m 783 -268 l 51 -268 l 51 -196 l 456 379 l 71 925 l 71 997 l 764 997 l 764 911 l 197 911 l 569 378 l 175 -182 l 783 -182 l 783 -268 z "},"−":{"ha":917,"x_min":111,"x_max":806,"o":"m 806 425 l 111 425 l 111 507 l 806 507 l 806 425 z "},"∕":{"ha":917,"x_min":171,"x_max":746,"o":"m 260 0 l 171 0 l 657 939 l 746 939 l 260 0 z "},"∙":{"ha":917,"x_min":371,"x_max":546,"o":"m 546 474 q 522 411 546 436 q 458 386 497 386 q 395 411 419 386 q 371 474 371 436 q 395 539 371 514 q 458 564 419 564 q 522 539 497 564 q 546 474 546 514 z "},"√":{"ha":1243,"x_min":111,"x_max":1214,"o":"m 1214 997 l 739 -268 l 629 -268 l 400 340 l 111 340 l 111 426 l 472 426 l 686 -156 l 1115 997 l 1214 997 z "},"∞":{"ha":1465,"x_min":51,"x_max":1414,"o":"m 1414 367 q 1323 92 1414 199 q 1090 -14 1232 -14 q 887 64 971 -14 q 732 282 803 142 q 578 63 663 140 q 374 -14 493 -14 q 142 92 232 -14 q 51 367 51 199 q 142 640 51 533 q 374 746 232 746 q 578 669 493 746 q 732 451 663 592 q 886 669 801 592 q 1090 746 971 746 q 1323 640 1232 746 q 1414 367 1414 533 m 216 578 q 183 537 216 578 q 150 367 150 496 q 216 154 150 238 q 383 71 282 71 q 551 144 483 71 q 688 367 618 218 q 551 588 618 514 q 383 661 483 661 q 216 578 282 661 m 778 367 q 913 146 843 221 q 1082 71 982 71 q 1249 154 1183 71 q 1315 367 1315 238 q 1249 578 1315 496 q 1082 661 1183 661 q 913 586 982 661 q 778 367 843 511 z "},"∫":{"ha":694,"x_min":96,"x_max":599,"o":"m 396 792 l 396 -74 q 339 -228 396 -175 q 186 -282 282 -282 q 96 -268 135 -282 l 96 -179 q 176 -193 133 -193 q 300 -68 300 -193 l 300 792 q 358 952 300 897 q 511 1007 415 1007 q 599 992 561 1007 l 599 914 q 526 928 569 928 q 396 792 396 928 z "},"≈":{"ha":917,"x_min":103,"x_max":814,"o":"m 633 500 q 448 569 569 500 q 286 638 326 638 q 210 607 236 638 q 183 506 185 576 l 103 506 q 146 665 97 606 q 282 724 194 724 q 406 690 338 724 q 534 622 474 656 q 631 588 594 588 q 732 719 732 588 l 814 719 q 773 558 821 617 q 633 500 725 500 m 633 225 q 448 294 569 225 q 286 363 326 363 q 210 332 236 363 q 183 229 185 301 l 103 229 q 146 389 97 329 q 282 449 194 449 q 378 427 325 449 q 471 380 431 406 q 556 333 511 354 q 631 311 601 311 q 732 443 732 311 l 814 443 q 773 283 821 342 q 633 225 725 225 z "},"≠":{"ha":917,"x_min":111,"x_max":806,"o":"m 324 286 l 111 286 l 111 368 l 360 368 l 464 564 l 111 564 l 111 646 l 500 646 l 657 939 l 746 939 l 588 646 l 806 646 l 806 564 l 553 564 l 449 368 l 806 368 l 806 286 l 413 286 l 260 0 l 171 0 l 324 286 z "},"≤":{"ha":917,"x_min":111,"x_max":806,"o":"m 111 569 l 806 875 l 806 790 l 211 531 l 806 271 l 806 186 l 111 492 l 111 569 m 806 1 l 111 1 l 111 83 l 806 83 l 806 1 z "},"≥":{"ha":917,"x_min":111,"x_max":806,"o":"m 806 492 l 111 186 l 111 271 l 706 531 l 111 790 l 111 875 l 806 569 l 806 492 m 806 1 l 111 1 l 111 83 l 806 83 l 806 1 z "},"◊":{"ha":954,"x_min":176,"x_max":778,"o":"m 533 -268 l 424 -268 l 176 365 l 424 997 l 533 997 l 778 365 l 533 -268 m 272 365 l 475 -161 l 676 365 l 475 890 l 272 365 z "},"":{"ha":2415,"x_min":135,"x_max":2244,"o":"m 135 0 l 135 972 l 435 972 l 435 0 l 135 0 m 497 689 l 497 972 l 797 972 l 797 689 l 497 689 m 858 0 l 858 972 l 1160 972 l 1160 0 l 858 0 m 1221 689 l 1221 972 l 1521 972 l 1521 689 l 1221 689 m 1582 0 l 1582 972 l 1883 972 l 1883 0 l 1582 0 m 1944 689 l 1944 972 l 2244 972 l 2244 689 l 1944 689 m 1944 343 l 1944 628 l 2244 628 l 2244 343 l 1944 343 z "},"ﬁ":{"ha":797,"x_min":-3,"x_max":721,"o":"m 267 0 l 169 0 l 169 650 l -3 650 l -3 732 l 169 732 l 169 799 q 222 954 169 900 q 371 1008 275 1008 q 458 993 419 1008 l 458 913 q 388 924 432 924 q 267 799 267 924 l 267 732 l 482 732 l 482 650 l 267 650 l 267 0 m 699 953 q 710 943 699 953 q 721 901 721 933 q 699 849 721 869 q 643 828 678 828 q 586 849 608 828 q 564 901 564 869 q 586 953 564 933 q 643 974 608 974 q 699 953 678 974 m 692 0 l 594 0 l 594 732 l 692 732 l 692 0 z "},"ﬂ":{"ha":797,"x_min":-3,"x_max":692,"o":"m 267 0 l 169 0 l 169 650 l -3 650 l -3 732 l 169 732 l 169 799 q 222 954 169 900 q 371 1008 275 1008 q 458 993 419 1008 l 458 913 q 388 924 432 924 q 267 799 267 924 l 267 732 l 482 732 l 482 650 l 267 650 l 267 0 m 692 0 l 594 0 l 594 997 l 692 997 l 692 0 z "}}}
